<?xml version="1.0" encoding="UTF-8"?>
<!DOCTYPE svg PUBLIC "-//W3C//DTD SVG 1.1//EN" "http://www.w3.org/Graphics/SVG/1.1/DTD/svg11.dtd">
<!-- Creator: CorelDRAW -->
<svg xmlns="http://www.w3.org/2000/svg" xml:space="preserve" width="65.0131mm" height="75.4809mm" version="1.1" style="shape-rendering:geometricPrecision; text-rendering:geometricPrecision; image-rendering:optimizeQuality; fill-rule:evenodd; clip-rule:evenodd"
viewBox="0 0 2620.94 3042.94"
 xmlns:xlink="http://www.w3.org/1999/xlink"
 xmlns:xodm="http://www.corel.com/coreldraw/odm/2003">
 <defs>
  <style type="text/css">
   <![CDATA[
    .fil0 {fill:#93284C}
   ]]>
  </style>
 </defs>
 <g id="Layer_x0020_1">
  <metadata id="CorelCorpID_0Corel-Layer"/>
  <g id="_1422047402320">
   <g>
    <path class="fil0" d="M1776.38 39.78c-12.79,6.02 -22.56,11.29 -22.56,31.59 0,20.3 24.06,9.03 44.37,3.01 20.31,-6.01 27.07,6.77 31.64,18.04 4.57,11.28 17.24,2.26 23.26,-1.5 6.01,-3.76 12.02,-21.06 13.46,-32.34 1.54,-11.28 11.31,-7.52 22.62,-6.77 37.56,0 67.69,10.53 89.49,25.56 21.81,15.04 57.1,51.9 63.89,89.5 6.79,37.6 -9.77,60.16 -17.28,70.69 -7.51,10.53 -12.76,20.3 -7.51,33.84 5.25,13.53 18.82,7.52 25.52,0.75 6.79,-6.77 21.81,-24.81 27.15,-36.85 5.25,-12.04 21.81,6.02 25.51,16.54 14.3,39.86 35.38,48.88 72.21,50.38 36.83,1.5 54.93,-22.56 60.18,-50.38 5.97,-52.64 -48.14,-66.93 -64.7,-65.42 -16.55,1.5 -18,22.56 -7.51,24.06 10.5,1.51 20.27,11.28 21.08,24.07 0.73,12.78 -0.81,22.56 -21.81,24.06 -21.08,1.5 -39.09,-36.85 -43.62,-48.13 -4.53,-11.28 -35.38,-80.46 -75.2,-125.59 -39.9,-45.12 -96.28,-68.39 -147.41,-67.68 -54.14,0.75 -100.01,16.54 -112.79,22.55z"/>
    <path class="fil0" d="M1973.32 172.89c-2.17,5.27 -2.99,7.53 -14.21,0 -11.31,-7.52 -22.62,-11.98 -28.59,-13.13 -6.06,-1.16 -23.43,-6.42 -3.89,-18.45 9.78,-5.96 20.45,3 29.41,8.27 9.05,5.26 19.54,18.04 17.28,23.31zm8.33 -42.87c-23.35,-28.57 -48.42,-38.95 -79,-34.59 -26.33,3.77 -33.03,12.04 -47.32,25.58 -14.28,13.53 -13.53,37.6 -15.04,57.15 -1.5,19.54 9.02,30.08 25.53,27.82 16.56,-2.27 35.38,-10.53 54.11,-6.77 18.82,3.75 48.95,21.05 71.3,33.84 22.44,12.78 21.99,-9.77 21.99,-30.08 0,-20.31 -8.32,-44.37 -31.58,-72.94z"/>
    <path class="fil0" d="M1985.36 377.44c-8.96,15.79 -27.78,34.6 -40.54,37.6 -12.84,3.02 -26.33,2.25 -27.87,-6.76 -1.45,-9.03 14.3,-12.78 24.79,-15.04 10.77,-2.29 21.81,-9.02 27.87,-15.04 5.97,-6.02 24.79,-16.54 15.74,-0.75zm37.65 -75.14c-7.05,-28.27 -13.57,-8.33 -20.27,0 -6.78,8.33 -13.76,21 -35.38,38.29 -37.65,30.07 -74.48,28.57 -83.52,27.82 -8.96,-0.75 -13.49,4.51 -15.02,12.03 -1.45,7.52 -4.53,15.8 -4.53,36.85 0,21.05 23.35,47.38 52.67,49.63 29.32,2.26 39.09,-4.51 58.64,-15.04 19.55,-10.53 39.91,-44.37 50.4,-68.43 10.59,-24.06 0.81,-66.17 -2.99,-81.15z"/>
    <path class="fil0" d="M1948.26 285.91c-9.77,3.76 -23.62,5.85 -32.03,5.8 -8.59,-0.04 -22.54,0.06 -19.28,-9.74 1.73,-5.13 11.49,-8.57 24.16,-7.66 11.31,0.8 20.72,-0.94 25.16,-1.39 7.42,-0.75 11.76,9.24 1.99,13zm49.14 -33.31c-5.25,-6.01 -20.27,-16.54 -60.09,-33.08 -39.9,-16.55 -54.92,-6.01 -75.96,6.02 -21.05,12.02 -32.2,33.92 -30.08,59.41 3.01,36.09 26.33,62.41 64.59,62.41 38.37,-0 64.7,-23.31 90.31,-49.63 25.52,-26.33 16.56,-39.11 11.22,-45.13z"/>
    <path class="fil0" d="M1793.89 265.73c11.72,16.23 17.13,7.22 20.74,-1.79 3.6,-9.03 9.92,-22.54 15.33,-33.37 5.42,-10.82 1.81,-17.13 -0.89,-26.14 -2.71,-9.01 -3.61,-28.85 -4.52,-46.89 -0.9,-18.03 -18.03,-1.8 -25.24,7.21 -7.21,9.02 -19.84,21.51 -19.84,47.8 0,18.02 2.71,36.98 14.43,53.19z"/>
    <path class="fil0" d="M1829.07 416.31c10.82,10.82 15.33,6.31 16.22,0.91 0.9,-5.41 5.41,-27.05 9.92,-46 4.52,-18.93 -2.71,-19.83 -9.01,-26.14 -6.31,-6.31 -13.52,-12.62 -25.24,-29.76 -11.72,-17.13 -17.13,-2.71 -19.83,4.52 -2.71,7.21 -4.06,25.41 -0.91,45.99 3.62,23.45 18.04,39.67 28.86,50.49z"/>
    <path class="fil0" d="M1689.29 118.75c-4.5,7.21 -2.71,14.42 1.8,18.03 4.51,3.6 9.02,7.22 17.13,14.44 8.12,7.21 15.33,2.71 18.04,-2.71 2.71,-5.42 9.01,-13.53 15.33,-14.43 6.31,-0.91 22.54,-2.71 33.36,7.21 10.82,9.93 10.82,13.53 18.04,7.22 7.22,-6.33 0.9,-14.43 2.71,-29.76 1.81,-15.33 -24.35,-21.64 -40.58,-25.24 -16.22,-3.61 -11.72,-23.45 -12.62,-40.58 -0.89,-28.86 -13.52,-36.97 -24.35,-40.58 -10.81,-3.6 -37.86,-7.21 -48.68,-4.51 -10.82,2.71 -17.14,13.53 0.9,16.23 18.03,2.71 32.45,9.92 36.97,23.45 4.51,13.51 -2.43,33.15 -7.22,48.69 -3.61,11.72 -6.31,15.33 -10.82,22.54z"/>
    <path class="fil0" d="M1557.65 107.03c-10.82,3.61 -35.17,2.71 -42.38,0 -7.22,-2.71 -32.46,-14.42 -36.97,-17.13 -4.5,-2.71 -12.62,-8.12 -9.92,-14.42 2.71,-6.33 8.12,-4.52 18.03,-1.81 9.92,2.71 16.23,2.71 27.96,2.71 17.35,0 29.76,8.12 38.77,9.91 9.02,1.81 15.33,17.13 4.51,20.74zm756.19 -57.11c-4.16,-17.43 -25.88,-32.46 -36.11,-34.86 -10.13,-2.41 -18.55,6.02 -22.17,9.62 -3.62,3.61 13.76,10.22 16.84,18.03 2.98,7.81 -0.63,17.43 -6.06,21.04 -5.43,3.6 -18.64,-9.02 -43.25,-25.24 -24.62,-16.24 -50.59,-32.9 -81.17,-30.06 -25.88,2.41 -48.05,4.81 -67.96,6.62 -19.81,1.81 -33.66,-7.82 -38.46,-1.8 -4.8,6.01 1.27,23.45 16.29,32.46 15.03,9.01 23.62,24.2 26.42,38.48 3.62,18.63 15.02,30.05 24.07,28.84 12.58,-1.68 4.16,-18.63 11.4,-36.06 7.24,-17.44 31.22,-19.25 49.86,-12.63 18.64,6.62 34.3,19.85 36.11,33.67 1.81,13.82 1.81,21.64 -10.23,24.05 -12.03,2.39 -16.83,-7.82 -24.07,-4.21 -7.24,3.6 -7.78,19.83 -1.18,30.06 6.61,10.22 28.23,17.21 40.27,18.03 17.47,1.2 13.21,-21.03 32.49,-22.23 10.04,-0.64 16.83,33.05 18.01,62.51 1.18,29.45 -7.24,76.95 -16.84,105.8 -9.59,28.85 -28.23,32.46 -40.27,33.06 -12.03,0.6 -46.87,0 -72.12,-4.81 -25.25,-4.81 -27.7,-22.85 -30.68,-34.87 -2.98,-12.02 -18.01,-1.8 -26.42,15.03 -8.41,16.84 8.41,36.07 17.38,43.28 9.05,7.21 1.27,14.42 -8.96,20.44 -10.22,6.01 -36.11,26.45 -62.53,53.5 -26.51,27.05 -33.12,43.89 -33.12,57.71 0,13.82 19.91,10.81 29.5,8.41 9.59,-2.41 18.64,-21.64 30.67,-41.47 12.04,-19.85 25.79,-18.65 34.21,-6.02 8.42,12.63 17.46,6.62 20.45,-2.4 2.99,-9.03 12.03,-18.63 26.51,-34.87 14.39,-16.23 40.81,-26.45 55.29,-25.85 14.39,0.6 7.15,15.03 4.16,20.44 -7.15,18.03 -33.03,45.09 -72.12,67.93 -39.09,22.84 -107.59,37.27 -130.48,40.28 -22.8,3 -49.86,0.6 -63.07,-4.21 -13.21,-4.82 -10.23,-17.44 -9.59,-27.05 0.54,-9.61 -9.05,-11.42 -13.84,-8.42 -4.8,3.01 -10.23,13.23 -20.45,15.03 -10.18,1.8 -17.4,-6.61 -25.81,-10.82 -8.43,-4.21 -26.46,-29.45 -31.86,-43.88 -5.41,-14.43 -32.46,-93.77 -37.88,-114.22 -5.41,-20.44 -29.46,-93.77 -32.46,-111.81 -3,-18.04 6.62,-25.26 11.42,-35.44 4.81,-10.18 -1.21,-10.86 -6.01,-9.05 -4.81,1.8 -15.63,7.81 -24.64,9.01 -9.02,1.2 -33.06,-27.64 -45.09,-40.87 -12.02,-13.23 -40.89,-35.47 -49.3,-43.28 -8.41,-7.82 0,-24.65 -10.82,-42.68 -5.57,-9.3 -31.26,-36.06 -42.08,-43.28 -10.81,-7.22 -35.45,-10.83 -45.68,-10.84 -16.84,-0.03 -0.6,14.2 -12.03,18.06 -4.33,1.46 -12.62,-4.22 -17.43,-7.22 -4.81,-3.02 -21.04,-10.22 -34.27,-10.82 -13.23,-0.61 -18.03,10.22 -22.85,15.63 -4.8,5.41 -22.84,0 -30.05,0 -7.21,0 -12.02,4.81 -15.63,10.22 -3.61,5.41 -11.43,0.6 -17.44,0l-29.63 -0.58c-10.22,0.6 -10.04,7.79 -8.84,13.8 1.21,6.01 16.83,12.62 22.84,16.83 6.01,4.2 14.42,13.22 14.42,19.24 0,6.01 -8.42,8.43 -13.83,8.43 -5.4,-0.01 -5.4,4.8 -2.4,6.6 3.01,1.8 12.62,10.22 20.43,12.62 7.82,2.41 23.46,8.42 49.9,9.62 -22.84,13.82 -7.21,29.45 0,30.66 7.22,1.2 24.05,1.81 38.48,1.81 14.43,0 24.05,-1.2 27.05,5.4 3,6.61 -5.41,11.42 -12.62,15.03 -7.21,3.6 -1.81,7.8 4.81,9.01 6.61,1.2 29.45,1.81 56.5,-6.01 27.05,-7.81 46.89,-27.64 60.72,-30.05 13.83,-2.41 37.27,17.43 62.52,46.89 25.24,29.46 49.3,75.74 63.12,107.6 13.83,31.86 35.46,112.41 42.08,133.45 6.63,21.04 11.43,31.87 6.02,34.27 -5.41,2.41 -21.65,-12.03 -28.86,-21.04 -20.43,-22.85 -29.46,-45.69 -34.26,-61.92 -4.81,-16.23 0.6,-34.26 3,-51.7 2.41,-17.44 -5.41,-17.44 -8.43,-15.63 -3,1.8 -9.01,10.22 -18.03,9.01 -9.01,-1.21 -11.42,-16.22 -13.22,-23.43 -1.8,-7.22 -3,-54.71 -6.01,-80.56 -3,-25.85 -16.83,-18.04 -21.64,-15.03 -4.8,3.01 -7.82,16.83 -12.03,18.64 -4.2,1.8 -13.82,-9.62 -33.65,-16.84 -19.84,-7.21 -46.89,0 -57.12,13.23 -10.21,13.22 -15.63,40.87 0,67.93 15.63,27.04 40.29,18.02 52.91,7.81 12.62,-10.22 6.61,-20.43 -2.41,-27.05 -9.01,-6.62 -17.44,-20.44 -14.43,-25.26 8.22,-13.15 27.05,-1.2 36.67,10.82 9.61,12.03 21.03,46.89 37.27,94.38 16.23,47.49 70.93,126.24 103.99,159.3 33.07,33.06 72.14,47.5 80.55,50.5 8.42,3 4.81,19.23 7.21,28.86 2.41,9.61 13.81,12.01 20.96,8.41 7.24,-3.62 9.05,-10.82 9.68,-16.23 0.54,-5.42 20.99,-7.82 34.84,-7.16 13.85,0.66 70.31,-0.06 89.59,-1.83 47.33,-4.4 73.29,-25.27 82.35,-30.67 9.05,-5.41 26.42,20.43 32.49,24.64 5.97,4.2 26.42,8.41 34.84,7.81 8.42,-0.6 1.18,-13.82 -2.98,-16.82 -4.25,-3.02 -10.23,-16.83 -10.86,-26.45 -0.99,-17.08 45.7,-44.49 89.59,-100.99 43.89,-56.52 63.16,-117.83 66.15,-193.57 2.99,-75.74 -15.02,-119.63 -16.2,-125.63 -1.26,-6.01 16.2,-12.03 22.81,-14.42 6.61,-2.41 9.05,-22.25 4.8,-39.68z"/>
    <path class="fil0" d="M2257.83 919.92c-5.43,0 -15.66,-12.62 -20.46,-16.83 -4.79,-4.21 -15.02,-13.83 -17.46,-17.44 -2.35,-3.62 -2.99,-12.03 1.27,-14.42 4.16,-2.41 18.01,1.8 25.79,9.62 5.79,5.72 11.49,15.03 12.67,22.25 1.18,7.21 3.62,16.83 -1.81,16.83zm-103.88 -272.47c-5.98,4.21 -16.84,12.03 -22.27,14.42 -5.43,2.41 -12.58,7.21 -16.2,3 -3.62,-4.2 7.78,-15.02 13.21,-19.83 6.7,-5.94 13.84,-13.24 20.45,-15.04 6.61,-1.8 14.39,-3 14.39,1.2 0,4.21 -3.62,12.03 -9.59,16.23zm155.1 295.16c-1.81,-10.23 -15.03,-26.45 -18.65,-36.07 -3.62,-9.62 4.8,-12.02 12.58,-15.02 7.87,-3.02 0,-16.24 -7.78,-27.05 -7.78,-10.82 -22.26,-30.05 -36.65,-38.48 -14.48,-8.42 -47.51,-9.02 -66.15,-10.23 -18.64,-1.2 -22.8,-7.21 -22.8,-13.22 0,-6.01 10.77,-12.62 30.58,-18.02 19.91,-5.41 46.97,-4.81 59.54,2.4 12.67,7.21 16.83,4.21 21.08,-7.21 4.17,-11.42 -3.62,-21.64 -10.86,-27.66 -7.23,-6.02 -8.41,-12.62 -4.16,-19.83 4.17,-7.21 8.96,-16.83 12.58,-27.66 3.62,-10.82 1.81,-44.49 -4.16,-69.73 -6.06,-25.25 -33.12,-59.52 -41.54,-70.94 -8.41,-11.42 -7.24,-27.05 -8.96,-36.06 -1.81,-9.02 -1.81,-23.45 14.39,-24.65 16.2,-1.21 15.03,16.84 15.03,25.85 0,9.01 10.86,5.41 18,1.2 7.24,-4.21 6.06,-22.25 5.43,-37.27 -0.54,-15.03 -28.86,-26.33 -41.45,-25.24 -21.08,1.8 -32.48,12.01 -37.91,30.65 -5.43,18.64 7.87,54.11 13.84,64.32 5.97,10.21 13.84,21.04 12.67,27.05 -1.26,6.01 -17.46,2.4 -27.69,2.4 -10.22,-0 -46.87,-3 -66.69,-3.6 -19.91,-0.61 -34.93,3.6 -52.3,13.82 -17.46,10.22 -11.49,19.23 -4.89,22.84 6.7,3.6 3.62,9.62 -0.54,14.42 -4.25,4.81 -15.03,11.43 -23.44,20.44 -8.41,9.01 8.41,12.03 15.02,15.63 6.61,3.61 -4.8,13.83 -8.41,18.03 -3.62,4.21 0.54,10.82 7.15,12.63 6.7,1.8 13.3,-0.6 24.7,-2.41 11.4,-1.81 8.42,10.82 8.42,16.22 0,5.41 5.43,10.82 10.77,8.42 5.43,-2.4 11.49,-10.82 16.29,-19.23 4.8,-8.43 10.77,-4.21 14.39,0 3.62,4.2 6.6,7.21 12.67,3.6 5.97,-3.6 19.82,-13.82 33.66,-23.44 13.85,-9.62 15.65,-21.04 16.83,-34.87 1.18,-13.82 2.99,-25.24 19.18,-24.65 16.29,0.6 21.72,11.43 28.32,18.64 6.61,7.21 4.16,33.05 2.99,44.47 -1.18,11.43 -8.41,24.66 -16.29,24.66 -7.78,0 -10.77,-5.41 -15.57,-9.62 -4.8,-4.21 -9.68,-8.42 -22.26,-7.82 -12.67,0.59 -7.24,9.02 -3.62,21.65 3.62,12.61 1.18,16.22 -5.97,26.44 -7.24,10.21 -27.06,16.23 -43.35,16.84 -34.21,1.2 -72.12,-33.06 -94.92,-59.51 -22.89,-26.45 -38.46,-82.96 -43.34,-102.2 -4.8,-19.23 -10.77,-17.43 -21,-16.23 -10.22,1.2 -16.2,4.21 -18.64,8.42 -2.44,4.2 -4.8,16.22 -9.59,21.04 -4.79,4.8 -9.68,0 -15.02,-3.01 -5.43,-3.02 -11.49,-6.01 -16.29,-4.81 -4.79,1.21 -8.96,15.03 -1.81,30.06 7.24,15.03 34.3,15.63 45.16,13.23 10.77,-2.41 15.57,16.82 21.63,28.84 5.97,12.01 37.28,57.71 64.24,80.55 27.06,22.85 93.84,60.71 108.23,68.54 14.48,7.8 7.24,34.26 10.86,59.5 3.62,25.24 21.63,39.07 38.46,47.49 16.84,8.41 21.63,17.44 24.07,33.07 2.36,15.63 19.82,12.62 28.24,12.62 8.42,0 12.03,12.62 18.01,19.83 6.06,7.21 12.67,2.4 16.29,-4.21 3.53,-6.62 -0.63,-17.43 -0.63,-26.45 0,-9.01 5.97,-8.42 11.4,-9.01 5.43,-0.6 2.44,-10.22 0.64,-20.44z"/>
    <path class="fil0" d="M731.77 17.21c-51.13,-0.71 -107.55,22.56 -147.4,67.68 -39.86,45.14 -70.69,114.32 -75.21,125.6 -4.51,11.27 -22.56,49.62 -43.62,48.12 -21.06,-1.51 -22.56,-11.28 -21.82,-24.06 0.76,-12.79 10.54,-22.56 21.07,-24.06 10.54,-1.52 9.02,-22.57 -7.52,-24.07 -16.54,-1.5 -70.69,12.79 -64.68,65.43 5.27,27.82 23.32,51.9 60.17,50.38 36.86,-1.5 57.9,-10.53 72.19,-50.38 3.76,-10.53 20.3,-28.58 25.56,-16.54 5.27,12.03 20.31,30.07 27.07,36.85 6.77,6.77 20.31,12.78 25.56,-0.75 5.27,-13.53 0,-23.31 -7.52,-33.84 -7.52,-10.53 -24.06,-33.09 -17.29,-70.68 6.77,-37.61 42.12,-74.46 63.92,-89.51 21.82,-15.04 51.9,-25.56 89.5,-25.56 11.28,-0.75 21.06,-4.52 22.56,6.77 1.51,11.28 7.52,28.58 13.54,32.33 6.02,3.76 18.69,12.79 23.26,1.5 4.57,-11.28 11.34,-24.06 31.64,-18.04 20.31,6.01 44.38,17.29 44.38,-3.01 0,-20.3 -9.78,-25.56 -22.57,-31.58 -12.78,-6.02 -58.66,-21.81 -112.8,-22.56z"/>
    <path class="fil0" d="M664.85 149.57c9.02,-5.27 19.7,-14.21 29.4,-8.26 19.62,12.03 2.18,17.29 -3.84,18.45 -6.01,1.15 -17.29,5.61 -28.57,13.13 -11.28,7.51 -12.03,5.27 -14.29,0 -2.26,-5.27 8.27,-18.05 17.29,-23.31zm-57.15 53.39c0,20.31 -0.46,42.87 21.96,30.08 22.42,-12.78 52.49,-30.08 71.3,-33.83 18.8,-3.77 37.6,4.51 54.15,6.77 16.54,2.25 27.07,-8.27 25.57,-27.82 -1.5,-19.56 -0.75,-43.62 -15.05,-57.16 -14.29,-13.54 -21.06,-21.81 -47.39,-25.56 -30.52,-4.36 -55.64,6.01 -78.96,34.59 -23.31,28.58 -31.58,52.65 -31.58,72.94z"/>
    <path class="fil0" d="M651.31 378.19c6.01,6.02 17.11,12.75 27.82,15.04 10.52,2.25 26.31,6.01 24.81,15.04 -1.5,9.01 -15.04,9.77 -27.82,6.76 -12.78,-3 -31.58,-21.81 -40.6,-37.6 -9.02,-15.79 9.77,-5.27 15.79,0.75zm-56.4 5.27c10.53,24.06 30.83,57.91 50.38,68.43 19.56,10.53 29.32,17.3 58.65,15.04 29.33,-2.25 52.65,-28.57 52.65,-49.63 0,-21.06 -3,-29.33 -4.52,-36.85 -1.5,-7.52 -6.01,-12.78 -15.04,-12.03 -9.02,0.75 -45.87,2.25 -83.48,-27.82 -21.61,-17.29 -28.57,-29.95 -35.34,-38.29 -6.76,-8.34 -13.22,-28.27 -20.31,0 -3.76,14.97 -13.54,57.08 -3.01,81.15z"/>
    <path class="fil0" d="M674.62 272.91c4.48,0.46 13.9,2.21 25.18,1.4 12.63,-0.91 22.41,2.54 24.12,7.66 3.27,9.8 -10.59,9.69 -19.23,9.74 -8.41,0.04 -22.29,-2.04 -32.06,-5.8 -9.78,-3.77 -5.41,-13.76 1.98,-13zm-39.85 24.81c25.57,26.32 51.89,49.63 90.24,49.63 38.35,-0 61.67,-26.32 64.68,-62.41 2.12,-25.49 -9.02,-47.38 -30.09,-59.42 -21.06,-12.03 -36.1,-22.56 -75.96,-6.01 -39.85,16.54 -54.89,27.06 -60.16,33.08 -5.26,6.01 -14.29,18.81 11.28,45.12z"/>
    <path class="fil0" d="M841.49 212.54c0,-26.29 -12.63,-38.77 -19.84,-47.8 -7.23,-9.01 -24.36,-25.24 -25.26,-7.21 -0.89,18.03 -1.79,37.88 -4.5,46.89 -2.72,9.02 -6.32,15.33 -0.89,26.15 5.39,10.82 11.71,24.35 15.32,33.36 3.61,9.01 9.03,18.03 20.74,1.8 11.73,-16.23 14.44,-35.16 14.44,-53.2z"/>
    <path class="fil0" d="M820.75 365.82c3.17,-20.58 1.8,-38.77 -0.92,-45.98 -2.71,-7.22 -8.1,-21.64 -19.83,-4.51 -11.72,17.13 -18.93,23.45 -25.24,29.75 -6.32,6.32 -13.53,7.22 -9.03,26.15 4.53,18.93 9.03,40.58 9.93,45.99 0.89,5.41 5.41,9.91 16.23,-0.91 10.82,-10.82 25.24,-27.05 28.86,-50.5z"/>
    <path class="fil0" d="M920.83 96.21c-4.79,-15.54 -11.72,-35.17 -7.22,-48.69 4.51,-13.53 18.93,-20.74 36.97,-23.45 18.04,-2.71 11.73,-13.52 0.9,-16.22 -10.82,-2.71 -37.87,0.91 -48.69,4.51 -10.82,3.6 -23.45,11.72 -24.35,40.57 -0.89,17.13 3.61,36.98 -12.62,40.58 -16.22,3.6 -42.37,9.91 -40.57,25.24 1.8,15.33 -4.51,23.45 2.7,29.76 7.23,6.31 7.22,2.71 18.04,-7.21 10.82,-9.93 27.05,-8.12 33.36,-7.21 6.31,0.89 12.62,9.01 15.33,14.42 2.72,5.41 9.93,9.92 18.04,2.71 8.12,-7.22 12.62,-10.82 17.13,-14.44 4.51,-3.6 6.32,-10.82 1.81,-18.03 -4.52,-7.21 -7.21,-10.82 -10.82,-22.54z"/>
    <path class="fil0" d="M1067.82 86.29c9.01,-1.8 21.42,-9.91 38.77,-9.91 11.72,0 18.04,0 27.95,-2.71 9.92,-2.71 15.33,-4.51 18.04,1.8 2.7,6.31 -5.41,11.73 -9.92,14.43 -4.52,2.69 -29.76,14.42 -36.97,17.13 -7.22,2.7 -31.57,3.6 -42.38,0 -10.82,-3.61 -4.51,-18.94 4.5,-20.74zm-755.92 3.3c6.61,2.41 24.04,8.42 22.83,14.43 -1.2,6.01 -19.23,49.9 -16.22,125.64 3,75.74 22.23,137.06 66.12,193.57 43.89,56.5 90.63,83.92 89.57,100.99 -0.6,9.6 -6.62,23.43 -10.83,26.44 -4.21,3 -11.42,16.24 -3.01,16.84 8.42,0.6 28.87,-3.61 34.88,-7.82 6.01,-4.21 23.44,-30.06 32.46,-24.65 9.01,5.41 34.97,26.3 82.35,30.67 19.24,1.79 75.75,2.51 89.57,1.85 13.83,-0.65 34.27,1.75 34.88,7.16 0.6,5.41 2.41,12.62 9.62,16.23 7.21,3.6 18.63,1.2 21.03,-8.41 2.41,-9.62 -1.2,-25.85 7.21,-28.87 8.42,-3.01 47.5,-17.43 80.56,-50.49 33.06,-33.07 87.77,-111.81 103.99,-159.3 16.24,-47.49 27.66,-82.35 37.27,-94.37 9.62,-12.04 28.45,-23.99 36.67,-10.83 3.01,4.81 -5.41,18.64 -14.42,25.26 -9.01,6.6 -15.03,16.83 -2.41,27.05 12.63,10.22 37.27,19.24 52.9,-7.82 15.63,-27.05 10.23,-54.7 0,-67.93 -10.21,-13.23 -37.27,-20.44 -57.1,-13.23 -19.84,7.21 -29.45,18.63 -33.67,16.84 -4.2,-1.81 -7.21,-15.63 -12.03,-18.63 -4.8,-3.01 -18.63,-10.82 -21.64,15.03 -3,25.85 -4.2,73.34 -6.01,80.55 -1.8,7.21 -4.21,22.25 -13.22,23.45 -9.02,1.19 -15.04,-7.21 -18.04,-9.02 -3,-1.81 -10.82,-1.8 -8.42,15.63 2.41,17.44 7.81,35.46 3,51.71 -4.8,16.22 -13.82,39.06 -34.26,61.91 -7.21,9.01 -23.45,23.44 -28.86,21.04 -5.41,-2.41 -0.6,-13.22 6.01,-34.27 6.62,-21.04 28.26,-101.59 42.08,-133.45 13.83,-31.86 37.88,-78.15 63.13,-107.6 25.25,-29.46 48.69,-49.29 62.52,-46.89 13.82,2.39 33.66,22.23 60.71,30.05 27.05,7.8 49.9,7.21 56.51,6.01 6.62,-1.21 12.02,-5.41 4.8,-9.01 -7.21,-3.62 -15.63,-8.42 -12.61,-15.03 3.01,-6.62 12.61,-5.41 27.05,-5.41 14.42,-0 31.26,-0.6 38.48,-1.8 7.21,-1.21 22.84,-16.83 0,-30.67 26.44,-1.2 42.08,-7.21 49.89,-9.61 7.81,-2.41 17.43,-10.82 20.44,-12.62 3,-1.81 3,-6.62 -2.41,-6.62 -5.41,0 -13.82,-2.41 -13.82,-8.41 0,-6.01 8.41,-15.03 14.42,-19.23 6.01,-4.22 21.64,-10.83 22.84,-16.84 1.21,-6.01 1.38,-13.19 -8.83,-13.8l-29.63 0.58c-6.02,0.59 -13.84,5.4 -17.45,0 -3.6,-5.41 -8.41,-10.23 -15.63,-10.23 -7.2,0 -25.24,5.41 -30.05,0 -4.81,-5.41 -9.62,-16.23 -22.85,-15.63 -13.22,0.6 -29.45,7.82 -34.26,10.82 -4.8,3 -13.1,8.67 -17.44,7.21 -11.42,-3.87 4.82,-18.08 -12.02,-18.06 -10.24,0.02 -34.86,3.64 -45.69,10.85 -10.82,7.21 -36.5,33.99 -42.08,43.28 -10.82,18.03 -2.41,34.87 -10.82,42.67 -8.41,7.82 -37.27,30.07 -49.29,43.29 -12.03,13.21 -36.08,42.08 -45.09,40.87 -9.01,-1.21 -19.83,-7.22 -24.64,-9.02 -4.81,-1.8 -10.82,-1.13 -6.01,9.06 4.81,10.19 14.42,17.4 11.42,35.43 -3.01,18.03 -27.06,91.38 -32.47,111.81 -5.41,20.43 -32.46,99.79 -37.87,114.22 -5.41,14.42 -23.45,39.67 -31.86,43.88 -8.41,4.2 -15.63,12.63 -25.85,10.82 -10.22,-1.8 -15.63,-12.03 -20.44,-15.03 -4.81,-3 -14.43,-1.2 -13.83,8.42 0.6,9.63 3.6,22.25 -9.62,27.05 -13.22,4.8 -40.27,7.21 -63.12,4.21 -22.84,-3.01 -91.37,-17.43 -130.44,-40.28 -39.07,-22.84 -64.93,-49.9 -72.14,-67.93 -3.01,-5.41 -10.22,-19.83 4.2,-20.44 14.43,-0.6 40.88,9.61 55.31,25.85 14.42,16.23 23.43,25.85 26.45,34.87 3.01,9.02 12.02,15.03 20.44,2.4 8.42,-12.62 22.23,-13.82 34.26,6.01 12.02,19.83 21.04,39.08 30.66,41.48 9.62,2.4 29.45,5.41 29.45,-8.41 0,-13.83 -6.6,-30.66 -33.05,-57.71 -26.46,-27.05 -52.31,-47.5 -62.52,-53.5 -10.22,-6.01 -18.04,-13.22 -9.02,-20.44 9.03,-7.22 25.85,-26.45 17.44,-43.28 -8.41,-16.84 -23.45,-27.06 -26.46,-15.03 -3,12.03 -5.4,30.06 -30.65,34.86 -25.25,4.81 -60.11,5.41 -72.14,4.81 -12.02,-0.6 -30.66,-4.2 -40.28,-33.05 -9.61,-28.87 -18.03,-76.35 -16.83,-105.81 1.21,-29.46 7.98,-63.15 18.04,-62.52 19.23,1.2 15.02,23.45 32.47,22.25 12,-0.83 33.65,-7.82 40.27,-18.04 6.61,-10.22 6.01,-26.45 -1.21,-30.05 -7.21,-3.61 -12.02,6.62 -24.04,4.21 -12.02,-2.41 -12.02,-10.23 -10.22,-24.06 1.81,-13.82 17.43,-27.05 36.06,-33.65 18.64,-6.62 42.68,-4.82 49.9,12.61 7.22,17.44 -1.22,34.38 11.42,36.06 9.02,1.21 20.44,-10.22 24.05,-28.84 2.76,-14.28 11.42,-29.47 26.45,-38.48 15.02,-9.03 21.04,-26.45 16.22,-32.46 -4.8,-6.01 -18.63,3.6 -38.46,1.8 -19.84,-1.8 -42.08,-4.21 -67.93,-6.62 -30.55,-2.84 -56.5,13.83 -81.16,30.05 -24.64,16.23 -37.86,28.87 -43.27,25.26 -5.41,-3.6 -9.02,-13.23 -6.01,-21.05 3.01,-7.81 20.44,-14.42 16.83,-18.02 -3.61,-3.61 -12.03,-12.03 -22.25,-9.62 -10.22,2.4 -31.85,17.43 -36.06,34.86 -4.2,17.44 -1.81,37.28 4.81,39.68z"/>
    <path class="fil0" d="M361.28 903.09c1.2,-7.21 6.9,-16.52 12.62,-22.24 7.81,-7.81 21.64,-12.03 25.85,-9.62 4.21,2.41 3.61,10.82 1.21,14.43 -2.41,3.6 -12.63,13.22 -17.44,17.43 -4.81,4.2 -15.03,16.83 -20.44,16.83 -5.41,-0 -3,-9.62 -1.8,-16.83zm96.08 -271.86c0,-4.21 7.8,-3 14.42,-1.2 6.61,1.8 13.76,9.09 20.44,15.02 5.41,4.81 16.83,15.63 13.22,19.83 -3.6,4.21 -10.82,-0.6 -16.23,-3 -5.41,-2.4 -16.23,-10.22 -22.25,-14.42 -6,-4.21 -9.61,-12.02 -9.61,-16.23zm-144.87 331.83c5.41,0.59 11.42,0 11.42,9.01 0,9.01 -4.21,19.83 -0.6,26.45 3.61,6.61 10.22,11.43 16.23,4.22 6.01,-7.22 9.62,-19.84 18.03,-19.84 8.42,0 25.85,3 28.25,-12.62 2.41,-15.63 7.22,-24.64 24.04,-33.06 16.84,-8.43 34.88,-22.25 38.48,-47.5 3.61,-25.25 -3.6,-51.7 10.82,-59.52 14.42,-7.81 81.15,-45.69 108.21,-68.53 27.05,-22.85 58.31,-68.52 64.32,-80.55 6.01,-12.03 10.82,-31.26 21.64,-28.86 10.82,2.4 37.88,1.81 45.09,-13.22 7.21,-15.03 3,-28.86 -1.8,-30.06 -4.81,-1.21 -10.82,1.8 -16.24,4.81 -5.41,3.01 -10.22,7.82 -15.02,3.02 -4.81,-4.82 -7.21,-16.84 -9.62,-21.04 -2.4,-4.21 -8.41,-7.21 -18.63,-8.42 -10.21,-1.21 -16.23,-3 -21.05,16.23 -4.8,19.24 -20.43,75.74 -43.27,102.2 -22.85,26.45 -60.72,60.72 -94.99,59.51 -16.22,-0.6 -36.06,-6.62 -43.27,-16.83 -7.22,-10.23 -9.63,-13.84 -6.03,-26.46 3.62,-12.61 9.03,-21.03 -3.6,-21.64 -12.62,-0.6 -17.43,3.61 -22.24,7.82 -4.81,4.21 -7.81,9.62 -15.63,9.62 -7.8,0 -15.02,-13.23 -16.23,-24.64 -1.2,-11.43 -3.62,-37.27 3,-44.49 6.62,-7.21 12.02,-18.04 28.25,-18.63 16.23,-0.61 18.02,10.81 19.23,24.64 1.21,13.83 3.01,25.25 16.84,34.88 13.83,9.61 27.65,19.83 33.66,23.43 6.01,3.61 9.01,0.61 12.62,-3.6 3.6,-4.21 9.61,-8.41 14.44,0 4.81,8.41 10.81,16.82 16.22,19.23 5.41,2.4 10.82,-3 10.82,-8.42 0,-5.41 -3.01,-18.02 8.41,-16.22 11.42,1.8 18.03,4.2 24.65,2.4 6.62,-1.8 10.82,-8.41 7.21,-12.61 -3.61,-4.21 -15.04,-14.44 -8.42,-18.04 6.62,-3.61 23.45,-6.62 15.03,-15.63 -8.42,-9.01 -19.25,-15.63 -23.45,-20.43 -4.21,-4.82 -7.21,-10.82 -0.6,-14.43 6.61,-3.61 12.63,-12.62 -4.82,-22.85 -17.43,-10.22 -32.45,-14.42 -52.29,-13.82 -19.83,0.59 -56.5,3.6 -66.73,3.6 -10.22,-0 -26.45,3.61 -27.66,-2.4 -1.19,-6.02 6.62,-16.83 12.62,-27.05 6.01,-10.24 19.24,-45.7 13.83,-64.33 -5.41,-18.65 -16.83,-28.86 -37.87,-30.65 -12.59,-1.09 -40.87,10.21 -41.48,25.24 -0.59,15.03 -1.8,33.07 5.41,37.27 7.21,4.21 18.04,7.81 18.04,-1.2 0,-9.01 -1.21,-27.05 15.03,-25.85 16.24,1.21 16.23,15.63 14.42,24.64 -1.79,9.01 -0.6,24.64 -9.01,36.06 -8.42,11.42 -35.47,45.68 -41.48,70.94 -6,25.24 -7.82,58.92 -4.2,69.73 3.61,10.82 8.41,20.44 12.62,27.66 4.21,7.21 3,13.82 -4.21,19.84 -7.21,6.01 -15.03,16.22 -10.82,27.64 4.22,11.42 8.42,14.42 21.04,7.21 12.63,-7.22 39.68,-7.81 59.52,-2.41 19.84,5.41 30.66,12.03 30.66,18.03 0,6.02 -4.21,12.03 -22.85,13.23 -18.63,1.2 -51.69,1.81 -66.12,10.23 -14.42,8.41 -28.85,27.64 -36.67,38.47 -7.8,10.82 -15.63,24.04 -7.8,27.05 7.81,3 16.22,5.4 12.62,15.02 -3.61,9.61 -16.84,25.84 -18.64,36.07 -1.8,10.22 -4.81,19.84 0.61,20.44z"/>
    <path class="fil0" d="M1889.17 2078.12c51.12,0.71 107.5,-22.56 147.4,-67.68 39.82,-45.14 70.67,-114.32 75.2,-125.6 4.43,-11.27 22.53,-49.62 43.62,-48.12 21,1.5 22.53,11.27 21.81,24.06 -0.81,12.79 -10.59,22.56 -21.08,24.06 -10.49,1.51 -9.05,22.57 7.51,24.07 16.56,1.5 70.67,-12.79 64.7,-65.43 -5.25,-27.82 -23.35,-51.9 -60.18,-50.38 -36.83,1.5 -57.92,10.52 -72.21,50.38 -3.71,10.53 -20.27,28.58 -25.51,16.54 -5.34,-12.03 -20.36,-30.07 -27.15,-36.85 -6.69,-6.77 -20.27,-12.78 -25.52,0.75 -5.24,13.53 0,23.31 7.51,33.84 7.51,10.52 24.07,33.08 17.28,70.68 -6.78,37.61 -42.08,74.46 -63.89,89.51 -21.8,15.03 -51.94,25.56 -89.49,25.56 -11.31,0.75 -21.08,4.52 -22.62,-6.77 -1.44,-11.28 -7.45,-28.58 -13.46,-32.33 -6.01,-3.77 -18.69,-12.79 -23.26,-1.5 -4.56,11.27 -11.34,24.06 -31.64,18.04 -20.31,-6.01 -44.38,-17.29 -44.38,3.01 0,20.29 9.78,25.56 22.56,31.58 12.79,6.02 58.67,21.81 112.81,22.56z"/>
    <path class="fil0" d="M1956.04 1945.76c-8.96,5.26 -19.64,14.21 -29.41,8.27 -19.54,-12.03 -2.17,-17.29 3.89,-18.45 5.97,-1.15 17.28,-5.61 28.59,-13.13 11.22,-7.52 12.03,-5.27 14.21,0 2.27,5.27 -8.23,18.04 -17.28,23.31zm57.19 -53.39c0,-20.31 0.45,-42.87 -21.99,-30.07 -22.35,12.78 -52.48,30.08 -71.3,33.83 -18.73,3.76 -37.55,-4.5 -54.11,-6.76 -16.5,-2.26 -27.03,8.27 -25.53,27.82 1.5,19.55 0.75,43.61 15.04,57.15 14.3,13.53 20.99,21.81 47.32,25.57 30.59,4.36 55.65,-6.01 79,-34.59 23.35,-28.58 31.58,-52.65 31.58,-72.95z"/>
    <path class="fil0" d="M1969.61 1717.14c-6.06,-6.02 -17.11,-12.75 -27.87,-15.04 -10.49,-2.25 -26.24,-6.01 -24.79,-15.04 1.54,-9.03 15.02,-9.77 27.87,-6.77 12.76,3 31.59,21.81 40.54,37.6 9.05,15.79 -9.77,5.27 -15.74,-0.75zm56.38 -5.27c-10.5,-24.06 -30.77,-57.9 -50.41,-68.42 -19.54,-10.53 -29.32,-17.3 -58.64,-15.05 -29.32,2.26 -52.67,28.58 -52.67,49.64 0,21.06 3.08,29.33 4.53,36.85 1.54,7.52 6.06,12.78 15.11,12.03 8.96,-0.75 45.88,-2.25 83.43,27.82 21.63,17.28 28.59,29.95 35.38,38.29 6.7,8.34 13.21,28.27 20.27,0 3.8,-14.98 13.57,-57.08 2.99,-81.16z"/>
    <path class="fil0" d="M1946.27 1822.43c-4.43,-0.46 -13.85,-2.2 -25.16,-1.39 -12.67,0.9 -22.44,-2.54 -24.16,-7.67 -3.25,-9.8 10.59,-9.69 19.28,-9.74 8.42,-0.05 22.26,2.04 32.03,5.8 9.78,3.76 5.43,13.76 -1.99,13.01zm39.91 -24.81c-25.61,-26.33 -51.94,-49.63 -90.31,-49.63 -38.27,-0 -61.59,26.31 -64.6,62.41 -2.12,25.49 9.02,47.38 30.09,59.41 21.03,12.02 36.05,22.56 75.96,6.01 39.82,-16.54 54.84,-27.07 60.09,-33.08 5.34,-6.02 14.3,-18.81 -11.22,-45.12z"/>
    <path class="fil0" d="M1779.47 1882.8c0,26.3 12.62,38.78 19.83,47.8 7.21,9.01 24.35,25.24 25.25,7.21 0.9,-18.04 1.8,-37.88 4.51,-46.89 2.71,-9.02 6.31,-15.33 0.91,-26.15 -5.41,-10.82 -11.73,-24.35 -15.34,-33.36 -3.6,-9.01 -9.02,-18.03 -20.74,-1.8 -11.72,16.22 -14.43,35.16 -14.42,53.19z"/>
    <path class="fil0" d="M1800.21 1729.51c-3.18,20.58 -1.81,38.78 0.9,45.99 2.71,7.21 8.1,21.63 19.83,4.5 11.72,-17.13 18.94,-23.45 25.24,-29.75 6.32,-6.32 13.53,-7.22 9.02,-26.15 -4.5,-18.93 -9.02,-40.58 -9.92,-45.99 -0.9,-5.42 -5.41,-9.92 -16.24,0.9 -10.81,10.81 -25.24,27.05 -28.84,50.49z"/>
    <path class="fil0" d="M1700.12 1999.12c4.77,15.55 11.72,35.17 7.21,48.7 -4.51,13.53 -18.93,20.74 -36.97,23.45 -18.04,2.71 -11.73,13.52 -0.9,16.22 10.82,2.71 37.87,-0.91 48.69,-4.5 10.82,-3.62 23.45,-11.72 24.35,-40.58 0.9,-17.15 -3.61,-36.98 12.63,-40.58 16.22,-3.61 42.37,-9.91 40.57,-25.24 -1.81,-15.34 4.51,-23.45 -2.71,-29.76 -7.21,-6.31 -7.21,-2.71 -18.03,7.21 -10.82,9.91 -27.04,8.12 -33.36,7.21 -6.31,-0.9 -12.63,-9.01 -15.34,-14.42 -2.7,-5.41 -9.92,-9.92 -18.02,-2.71 -8.11,7.21 -12.63,10.82 -17.13,14.44 -4.5,3.6 -6.32,10.81 -1.81,18.03 4.52,7.21 7.21,10.82 10.83,22.54z"/>
    <path class="fil0" d="M1553.15 2009.04c-9.01,1.79 -21.43,9.91 -38.77,9.91 -11.72,0 -18.04,0 -27.96,2.71 -9.91,2.7 -15.33,4.51 -18.03,-1.8 -2.69,-6.32 5.41,-11.73 9.92,-14.43 4.52,-2.7 29.75,-14.42 36.97,-17.13 7.22,-2.7 31.57,-3.6 42.38,0 10.83,3.6 4.51,18.94 -4.51,20.74zm755.9 -3.31c-6.61,-2.41 -24.07,-8.41 -22.81,-14.42 1.18,-6.01 19.18,-49.89 16.2,-125.64 -2.99,-75.74 -22.26,-137.06 -66.15,-193.57 -43.89,-56.5 -90.58,-83.92 -89.59,-100.99 0.64,-9.61 6.6,-23.43 10.86,-26.44 4.16,-3.01 11.4,-16.25 2.98,-16.84 -8.41,-0.6 -28.86,3.61 -34.84,7.82 -6.06,4.21 -23.44,30.06 -32.49,24.65 -9.05,-5.41 -35.02,-26.3 -82.35,-30.67 -19.27,-1.8 -75.74,-2.51 -89.59,-1.85 -13.84,0.65 -34.3,-1.75 -34.84,-7.16 -0.63,-5.41 -2.44,-12.62 -9.68,-16.22 -7.14,-3.62 -18.55,-1.21 -20.95,8.41 -2.41,9.61 1.19,25.86 -7.22,28.86 -8.41,3 -47.49,17.43 -80.55,50.49 -33.05,33.06 -87.76,111.82 -103.99,159.3 -16.23,47.49 -27.66,82.36 -37.27,94.38 -9.61,12.02 -28.45,23.98 -36.67,10.82 -3.01,-4.82 5.41,-18.64 14.42,-25.26 9.01,-6.61 15.03,-16.83 2.41,-27.04 -12.62,-10.22 -37.27,-19.24 -52.9,7.82 -15.63,27.04 -10.23,54.7 0,67.92 10.22,13.22 37.27,20.44 57.1,13.23 19.84,-7.22 29.45,-18.63 33.65,-16.84 4.22,1.8 7.22,15.63 12.04,18.63 4.81,3 18.63,10.82 21.63,-15.03 3.01,-25.85 4.21,-73.34 6.01,-80.55 1.8,-7.22 4.21,-22.25 13.22,-23.45 9.02,-1.19 15.04,7.22 18.04,9.03 3.01,1.8 10.82,1.8 8.42,-15.63 -2.41,-17.44 -7.81,-35.46 -3,-51.71 4.81,-16.23 13.82,-39.06 34.26,-61.91 7.21,-9.01 23.44,-23.44 28.86,-21.04 5.41,2.41 0.6,13.22 -6.01,34.27 -6.62,21.04 -28.26,101.59 -42.08,133.46 -13.82,31.85 -37.88,78.14 -63.12,107.6 -25.25,29.45 -48.7,49.29 -62.52,46.89 -13.82,-2.41 -33.66,-22.24 -60.71,-30.06 -27.05,-7.8 -49.9,-7.21 -56.51,-6.01 -6.61,1.21 -12.01,5.41 -4.8,9.01 7.21,3.61 15.63,8.42 12.61,15.03 -3,6.61 -12.61,5.41 -27.05,5.41 -14.43,0 -31.26,0.6 -38.48,1.8 -7.21,1.2 -22.84,16.83 0,30.67 -26.44,1.19 -42.08,7.21 -49.9,9.61 -7.8,2.41 -17.42,10.82 -20.43,12.62 -3,1.81 -3,6.62 2.41,6.62 5.41,-0 13.82,2.41 13.82,8.41 0,6.01 -8.41,15.02 -14.42,19.24 -6,4.21 -21.64,10.82 -22.84,16.83 -1.2,6.01 -1.38,13.19 8.83,13.8l29.63 -0.58c6.01,-0.6 13.83,-5.4 17.45,0 3.6,5.41 8.41,10.22 15.63,10.22 7.22,0 25.24,-5.41 30.05,0 4.81,5.4 9.61,16.23 22.85,15.63 13.22,-0.6 29.45,-7.82 34.26,-10.82 4.81,-3 13.09,-8.67 17.43,-7.21 11.43,3.87 -4.81,18.08 12.03,18.06 10.24,-0.02 34.86,-3.64 45.69,-10.85 10.82,-7.21 36.5,-33.99 42.08,-43.27 10.82,-18.04 2.41,-34.88 10.82,-42.68 8.41,-7.82 37.27,-30.07 49.29,-43.29 12.03,-13.22 36.08,-42.08 45.09,-40.87 9.02,1.2 19.83,7.22 24.64,9.02 4.82,1.8 10.82,1.13 6.01,-9.06 -4.8,-10.19 -14.42,-17.4 -11.42,-35.42 3.02,-18.04 27.05,-91.38 32.46,-111.82 5.42,-20.44 32.46,-99.79 37.87,-114.22 5.42,-14.42 23.45,-39.67 31.86,-43.88 8.42,-4.21 15.63,-12.63 25.81,-10.82 10.22,1.8 15.65,12.02 20.45,15.03 4.8,3 14.38,1.21 13.84,-8.41 -0.63,-9.64 -3.62,-22.25 9.59,-27.06 13.21,-4.81 40.27,-7.21 63.16,-4.21 22.81,3 91.31,17.43 130.4,40.28 39.09,22.84 64.97,49.9 72.12,67.93 2.99,5.41 10.22,19.83 -4.16,20.44 -14.48,0.6 -40.9,-9.61 -55.29,-25.85 -14.47,-16.24 -23.43,-25.85 -26.51,-34.87 -2.98,-9.02 -12.04,-15.03 -20.45,-2.4 -8.41,12.62 -22.17,13.82 -34.21,-6.01 -12.03,-19.83 -21.08,-39.08 -30.67,-41.48 -9.59,-2.41 -29.5,-5.41 -29.5,8.41 0,13.82 6.6,30.66 33.12,57.71 26.43,27.05 52.3,47.5 62.53,53.5 10.23,6.01 18.01,13.22 8.96,20.44 -8.96,7.21 -25.79,26.45 -17.38,43.28 8.42,16.83 23.44,27.06 26.42,15.03 2.99,-12.03 5.43,-30.06 30.68,-34.86 25.24,-4.82 60.08,-5.41 72.12,-4.81 12.03,0.6 30.67,4.2 40.27,33.07 9.6,28.85 18.01,76.34 16.84,105.8 -1.17,29.45 -7.97,63.14 -18.01,62.52 -19.27,-1.21 -15.02,-23.45 -32.49,-22.25 -12.03,0.83 -33.66,7.82 -40.27,18.04 -6.6,10.22 -5.97,26.45 1.18,30.06 7.24,3.6 12.03,-6.63 24.07,-4.22 12.04,2.4 12.04,10.22 10.23,24.05 -1.81,13.81 -17.46,27.05 -36.11,33.65 -18.64,6.62 -42.62,4.82 -49.86,-12.61 -7.24,-17.44 1.18,-34.39 -11.4,-36.07 -9.05,-1.21 -20.45,10.22 -24.07,28.84 -2.8,14.28 -11.4,29.47 -26.42,38.48 -15.02,9.02 -21.08,26.45 -16.29,32.46 4.8,6.01 18.64,-3.6 38.46,-1.8 19.91,1.8 42.08,4.21 67.96,6.62 30.59,2.84 56.56,-13.83 81.17,-30.05 24.62,-16.23 37.82,-28.87 43.25,-25.26 5.43,3.6 9.05,13.23 6.06,21.05 -3.08,7.81 -20.45,14.42 -16.84,18.02 3.62,3.61 12.04,12.03 22.17,9.62 10.23,-2.41 31.94,-17.43 36.11,-34.86 4.26,-17.45 1.81,-37.28 -4.79,-39.68z"/>
    <path class="fil0" d="M2259.63 1192.24c-1.18,7.22 -6.88,16.53 -12.58,22.25 -7.87,7.8 -21.72,12.03 -25.88,9.62 -4.25,-2.41 -3.62,-10.82 -1.18,-14.44 2.36,-3.6 12.58,-13.22 17.38,-17.42 4.8,-4.21 15.02,-16.84 20.45,-16.84 5.43,0 2.98,9.62 1.81,16.84zm-96.1 271.85c0,4.21 -7.78,3.01 -14.39,1.21 -6.6,-1.8 -13.76,-9.09 -20.45,-15.02 -5.43,-4.81 -16.83,-15.63 -13.21,-19.83 3.62,-4.21 10.77,0.6 16.2,3 5.43,2.39 16.29,10.22 22.26,14.42 5.97,4.2 9.59,12.02 9.59,16.23zm144.88 -331.83c-5.43,-0.6 -11.4,0 -11.4,-9.01 0,-9.01 4.25,-19.83 0.63,-26.45 -3.62,-6.62 -10.22,-11.43 -16.29,-4.22 -5.97,7.22 -9.59,19.84 -18.01,19.84 -8.41,-0 -25.88,-3 -28.24,12.62 -2.44,15.63 -7.24,24.64 -24.07,33.06 -16.83,8.42 -34.84,22.25 -38.46,47.5 -3.61,25.24 3.62,51.7 -10.86,59.52 -14.38,7.81 -81.08,45.69 -108.13,68.53 -27.05,22.85 -58.37,68.53 -64.34,80.56 -6.06,12.03 -10.86,31.26 -21.63,28.86 -10.86,-2.41 -37.92,-1.81 -45.16,13.22 -7.14,15.03 -2.98,28.86 1.81,30.06 4.8,1.2 10.86,-1.8 16.29,-4.81 5.35,-3.02 10.23,-7.82 15.02,-3.01 4.8,4.81 7.15,16.83 9.59,21.04 2.44,4.2 8.42,7.21 18.64,8.41 10.23,1.2 16.2,3 21.08,-16.23 4.8,-19.24 20.36,-75.75 43.25,-102.2 22.81,-26.45 60.72,-60.72 94.92,-59.51 16.29,0.6 36.11,6.62 43.35,16.83 7.15,10.22 9.59,13.84 5.97,26.46 -3.62,12.61 -9.05,21.03 3.62,21.64 12.67,0.59 17.46,-3.61 22.26,-7.82 4.8,-4.21 7.78,-9.62 15.65,-9.62 7.78,0 15.02,13.23 16.2,24.65 1.18,11.43 3.62,37.27 -2.99,44.48 -6.6,7.21 -12.04,18.04 -28.32,18.63 -16.19,0.6 -18,-10.81 -19.18,-24.64 -1.18,-13.83 -2.99,-25.25 -16.83,-34.88 -13.84,-9.61 -27.69,-19.83 -33.66,-23.43 -6.06,-3.62 -9.05,-0.61 -12.67,3.6 -3.53,4.21 -9.59,8.42 -14.39,0 -4.79,-8.42 -10.86,-16.82 -16.2,-19.23 -5.43,-2.41 -10.86,3 -10.86,8.42 0,5.41 2.98,18.02 -8.42,16.22 -11.4,-1.8 -18,-4.21 -24.61,-2.39 -6.69,1.8 -10.86,8.41 -7.24,12.61 3.62,4.21 15.02,14.44 8.41,18.04 -6.6,3.61 -23.43,6.62 -15.02,15.63 8.42,9.01 19.19,15.63 23.44,20.43 4.16,4.81 7.24,10.82 0.63,14.43 -6.69,3.61 -12.67,12.62 4.8,22.85 17.38,10.21 32.4,14.42 52.3,13.82 19.82,-0.6 56.47,-3.6 66.69,-3.6 10.23,-0 26.43,-3.61 27.69,2.4 1.18,6.01 -6.6,16.83 -12.67,27.05 -5.97,10.23 -19.18,45.7 -13.84,64.33 5.43,18.64 16.83,28.86 37.91,30.66 12.59,1.08 40.9,-10.22 41.45,-25.25 0.63,-15.03 1.81,-33.06 -5.43,-37.27 -7.14,-4.21 -18,-7.8 -18,1.21 0,9.01 1.17,27.05 -15.03,25.85 -16.19,-1.21 -16.19,-15.63 -14.39,-24.64 1.81,-9.02 0.54,-24.64 8.96,-36.07 8.42,-11.42 35.47,-45.68 41.54,-70.94 5.97,-25.24 7.78,-58.92 4.16,-69.73 -3.62,-10.82 -8.42,-20.44 -12.58,-27.65 -4.25,-7.22 -3.08,-13.83 4.16,-19.85 7.24,-6.01 15.03,-16.23 10.86,-27.64 -4.25,-11.42 -8.41,-14.42 -21.08,-7.21 -12.57,7.21 -39.63,7.81 -59.45,2.41 -19.9,-5.41 -30.67,-12.03 -30.67,-18.04 0,-6.02 4.16,-12.03 22.8,-13.23 18.64,-1.21 51.67,-1.81 66.15,-10.23 14.39,-8.41 28.87,-27.64 36.65,-38.47 7.78,-10.82 15.65,-24.04 7.78,-27.05 -7.78,-3.01 -16.2,-5.4 -12.58,-15.02 3.62,-9.62 16.83,-25.84 18.65,-36.07 1.81,-10.23 4.79,-19.84 -0.63,-20.44z"/>
    <path class="fil0" d="M844.59 2055.55c12.78,-6.01 22.55,-11.28 22.55,-31.58 0,-20.31 -24.06,-9.03 -44.37,-3.01 -20.3,6.01 -27.07,-6.77 -31.65,-18.04 -4.56,-11.29 -17.23,-2.26 -23.25,1.5 -6.01,3.76 -12.03,21.06 -13.54,32.34 -1.5,11.28 -11.28,7.52 -22.57,6.77 -37.59,-0 -67.68,-10.53 -89.48,-25.56 -21.81,-15.04 -57.15,-51.9 -63.92,-89.5 -6.76,-37.61 9.78,-60.16 17.3,-70.69 7.53,-10.53 12.79,-20.3 7.53,-33.84 -5.28,-13.54 -18.81,-7.52 -25.58,-0.75 -6.77,6.77 -21.81,24.81 -27.07,36.85 -5.27,12.03 -21.81,-6.01 -25.57,-16.54 -14.29,-39.87 -35.35,-48.88 -72.19,-50.38 -36.84,-1.5 -54.89,22.56 -60.16,50.38 -6.01,52.64 48.12,66.93 64.67,65.43 16.54,-1.5 18.04,-22.56 7.52,-24.06 -10.53,-1.51 -20.31,-11.28 -21.06,-24.07 -0.75,-12.79 0.75,-22.56 21.81,-24.06 21.06,-1.5 39.11,36.85 43.62,48.13 4.51,11.28 35.34,80.46 75.21,125.59 39.85,45.12 96.27,68.39 147.38,67.68 54.16,-0.75 100.03,-16.54 112.83,-22.56z"/>
    <path class="fil0" d="M647.54 1922.44c2.25,-5.27 3,-7.51 14.29,0 11.28,7.52 22.56,11.98 28.57,13.13 6.02,1.15 23.45,6.42 3.83,18.45 -9.69,5.95 -20.37,-3 -29.4,-8.27 -9.02,-5.26 -19.54,-18.04 -17.29,-23.31zm-8.27 42.87c23.31,28.57 48.44,38.96 78.95,34.6 26.32,-3.77 33.09,-12.04 47.39,-25.58 14.29,-13.54 13.53,-37.6 15.04,-57.15 1.51,-19.54 -9.02,-30.08 -25.56,-27.82 -16.55,2.26 -35.36,10.53 -54.16,6.77 -18.79,-3.76 -48.88,-21.05 -71.3,-33.83 -22.41,-12.79 -21.94,9.77 -21.94,30.08 0,20.3 8.27,44.37 31.59,72.94z"/>
    <path class="fil0" d="M635.52 1717.89c9.02,-15.8 27.82,-34.59 40.61,-37.6 12.78,-3.02 26.32,-2.26 27.82,6.77 1.51,9.02 -14.29,12.78 -24.81,15.04 -10.7,2.29 -21.81,9.02 -27.82,15.04 -6.01,6.01 -24.82,16.54 -15.79,0.75zm-37.6 75.13c7.09,28.26 13.54,8.33 20.31,0 6.77,-8.34 13.73,-21 35.34,-38.29 37.61,-30.08 74.46,-28.58 83.48,-27.82 9.03,0.75 13.55,-4.51 15.05,-12.03 1.5,-7.52 4.52,-15.8 4.52,-36.85 0,-21.06 -23.33,-47.38 -52.66,-49.63 -29.32,-2.27 -39.1,4.51 -58.65,15.04 -19.54,10.52 -39.85,44.37 -50.38,68.42 -10.52,24.06 -0.75,66.18 3.01,81.15z"/>
    <path class="fil0" d="M672.64 1809.42c9.77,-3.76 23.65,-5.85 32.06,-5.8 8.62,0.04 22.5,-0.06 19.22,9.74 -1.71,5.13 -11.49,8.57 -24.12,7.67 -11.27,-0.81 -20.69,0.94 -25.18,1.39 -7.39,0.74 -11.75,-9.24 -1.98,-13.01zm-49.16 33.31c5.27,6.01 20.31,16.54 60.16,33.09 39.86,16.55 54.9,6.02 75.96,-6.01 21.06,-12.03 32.2,-33.92 30.08,-59.41 -3,-36.1 -26.33,-62.41 -64.67,-62.41 -38.35,-0 -64.68,23.31 -90.25,49.62 -25.57,26.32 -16.55,39.11 -11.28,45.12z"/>
    <path class="fil0" d="M827.06 1829.6c-11.72,-16.22 -17.13,-7.21 -20.75,1.8 -3.6,9.02 -9.91,22.54 -15.33,33.38 -5.41,10.81 -1.81,17.13 0.9,26.14 2.71,9.01 3.61,28.85 4.52,46.89 0.89,18.03 18.03,1.8 25.24,-7.21 7.22,-9.02 19.83,-21.51 19.83,-47.8 0,-18.02 -2.71,-36.98 -14.42,-53.2z"/>
    <path class="fil0" d="M791.9 1679.01c-10.83,-10.82 -15.34,-6.3 -16.23,-0.9 -0.9,5.41 -5.41,27.05 -9.93,45.99 -4.51,18.93 2.71,19.83 9.02,26.14 6.31,6.31 13.52,12.62 25.24,29.76 11.72,17.13 17.13,2.71 19.84,-4.51 2.71,-7.22 4.06,-25.41 0.89,-45.99 -3.6,-23.45 -18.03,-39.67 -28.84,-50.5z"/>
    <path class="fil0" d="M931.65 1976.58c4.51,-7.22 2.71,-14.42 -1.8,-18.04 -4.51,-3.6 -9.02,-7.21 -17.13,-14.43 -8.11,-7.22 -15.34,-2.71 -18.04,2.72 -2.7,5.41 -9.01,13.53 -15.33,14.42 -6.3,0.9 -22.54,2.71 -33.36,-7.21 -10.82,-9.93 -10.82,-13.53 -18.04,-7.21 -7.21,6.31 -0.89,14.42 -2.7,29.75 -1.8,15.33 24.35,21.64 40.58,25.24 16.22,3.6 11.72,23.45 12.62,40.58 0.89,28.86 13.52,36.98 24.35,40.59 10.81,3.6 37.86,7.21 48.68,4.5 10.83,-2.71 17.14,-13.53 -0.9,-16.23 -18.02,-2.71 -32.45,-9.92 -36.97,-23.44 -4.5,-13.52 2.43,-33.16 7.22,-48.7 3.61,-11.72 6.31,-15.33 10.82,-22.54z"/>
    <path class="fil0" d="M1063.31 1988.3c10.82,-3.61 35.16,-2.71 42.38,0 7.21,2.71 32.46,14.42 36.97,17.13 4.51,2.71 12.62,8.12 9.92,14.43 -2.71,6.31 -8.12,4.51 -18.04,1.8 -9.91,-2.71 -16.22,-2.71 -27.95,-2.71 -17.35,0 -29.76,-8.12 -38.78,-9.91 -9.01,-1.81 -15.33,-17.13 -4.5,-20.74zm-756.23 57.11c4.2,17.42 25.84,32.46 36.06,34.86 10.22,2.41 18.63,-6.01 22.24,-9.62 3.6,-3.61 -13.83,-10.22 -16.83,-18.03 -3,-7.81 0.6,-17.43 6.01,-21.04 5.41,-3.6 18.63,9.02 43.29,25.24 24.65,16.23 50.61,32.9 81.16,30.06 25.85,-2.41 48.08,-4.81 67.93,-6.62 19.83,-1.81 33.66,7.82 38.46,1.8 4.82,-6.01 -1.2,-23.45 -16.22,-32.46 -15.03,-9.01 -23.69,-24.2 -26.45,-38.48 -3.6,-18.63 -15.03,-30.05 -24.05,-28.84 -12.63,1.68 -4.21,18.63 -11.42,36.06 -7.21,17.44 -31.26,19.25 -49.9,12.63 -18.63,-6.62 -34.26,-19.85 -36.06,-33.67 -1.8,-13.82 -1.8,-21.64 10.22,-24.04 12.02,-2.4 16.83,7.82 24.04,4.2 7.22,-3.6 7.82,-19.83 1.21,-30.06 -6.62,-10.22 -28.27,-17.2 -40.27,-18.03 -17.45,-1.21 -13.24,21.03 -32.47,22.23 -10.05,0.63 -16.83,-33.05 -18.04,-62.51 -1.2,-29.45 7.21,-76.95 16.83,-105.79 9.62,-28.86 28.26,-32.47 40.28,-33.07 12.03,-0.61 46.89,0 72.14,4.8 25.25,4.82 27.65,22.85 30.65,34.88 3.01,12.01 18.04,1.8 26.46,-15.03 8.42,-16.84 -8.42,-36.07 -17.43,-43.28 -9.03,-7.21 -1.2,-14.42 9.01,-20.44 10.22,-6.01 36.06,-26.45 62.52,-53.5 26.45,-27.05 33.05,-43.89 33.05,-57.71 0,-13.82 -19.83,-10.81 -29.45,-8.41 -9.62,2.4 -18.64,21.64 -30.67,41.47 -12.02,19.84 -25.84,18.65 -34.26,6.02 -8.41,-12.63 -17.44,-6.62 -20.44,2.4 -3,9.02 -12.03,18.63 -26.45,34.87 -14.42,16.22 -40.89,26.45 -55.31,25.85 -14.42,-0.6 -7.21,-15.03 -4.2,-20.44 7.22,-18.03 33.06,-45.09 72.14,-67.93 39.08,-22.84 107.61,-37.27 130.45,-40.28 22.85,-3.01 49.89,-0.6 63.12,4.21 13.24,4.81 10.22,17.44 9.62,27.06 -0.6,9.6 9.02,11.42 13.83,8.41 4.82,-3.02 10.23,-13.23 20.44,-15.03 10.22,-1.81 17.43,6.62 25.85,10.82 8.43,4.21 26.45,29.45 31.86,43.88 5.41,14.43 32.46,93.77 37.88,114.22 5.42,20.44 29.46,93.77 32.46,111.81 3.01,18.04 -6.62,25.26 -11.42,35.44 -4.81,10.18 1.2,10.86 6.01,9.05 4.81,-1.8 15.63,-7.81 24.64,-9.01 9.03,-1.21 33.06,27.64 45.09,40.87 12.02,13.23 40.88,35.47 49.3,43.28 8.41,7.82 0,24.65 10.82,42.68 5.58,9.29 31.26,36.06 42.09,43.28 10.82,7.22 35.44,10.83 45.68,10.84 16.85,0.03 0.6,-14.2 12.03,-18.06 4.33,-1.46 12.63,4.22 17.43,7.22 4.82,3.01 21.04,10.23 34.27,10.82 13.24,0.6 18.03,-10.21 22.85,-15.63 4.81,-5.41 22.84,0 30.05,0 7.21,0 12.02,-4.81 15.63,-10.22 3.62,-5.41 11.43,-0.6 17.44,0l29.64 0.58c10.22,-0.6 10.03,-7.79 8.83,-13.8 -1.21,-6.02 -16.84,-12.62 -22.84,-16.83 -6.01,-4.21 -14.42,-13.22 -14.42,-19.24 0,-6.02 8.41,-8.43 13.82,-8.43 5.41,0 5.41,-4.8 2.41,-6.6 -3,-1.8 -12.62,-10.22 -20.44,-12.62 -7.81,-2.41 -23.45,-8.42 -49.89,-9.62 22.84,-13.83 7.21,-29.45 0,-30.66 -7.21,-1.21 -24.06,-1.81 -38.48,-1.81 -14.42,-0 -24.04,1.2 -27.05,-5.4 -3,-6.62 5.41,-11.42 12.63,-15.03 7.21,-3.6 1.8,-7.8 -4.81,-9.01 -6.6,-1.21 -29.46,-1.81 -56.5,6.01 -27.04,7.81 -46.89,27.64 -60.72,30.06 -13.82,2.4 -37.26,-17.44 -62.52,-46.89 -25.24,-29.46 -49.3,-75.74 -63.12,-107.6 -13.82,-31.86 -35.46,-112.42 -42.09,-133.46 -6.61,-21.04 -11.42,-31.87 -6.01,-34.27 5.41,-2.4 21.65,12.03 28.86,21.05 20.44,22.84 29.46,45.68 34.26,61.91 4.82,16.23 -0.59,34.26 -3,51.7 -2.4,17.43 5.41,17.44 8.42,15.63 3.01,-1.81 9.02,-10.22 18.04,-9.01 9.02,1.2 11.42,16.22 13.22,23.43 1.81,7.21 3,54.71 6.01,80.56 3.01,25.85 16.83,18.04 21.64,15.03 4.82,-3 7.83,-16.83 12.04,-18.64 4.2,-1.8 13.82,9.62 33.65,16.84 19.83,7.2 46.89,0 57.11,-13.23 10.22,-13.22 15.63,-40.87 0,-67.93 -15.63,-27.05 -40.29,-18.02 -52.91,-7.8 -12.61,10.21 -6.6,20.43 2.41,27.04 9.01,6.62 17.44,20.44 14.42,25.26 -8.22,13.15 -27.05,1.2 -36.67,-10.82 -9.61,-12.03 -21.03,-46.89 -37.27,-94.38 -16.22,-47.49 -70.93,-126.24 -103.99,-159.3 -33.06,-33.07 -72.14,-47.5 -80.55,-50.5 -8.41,-3.01 -4.82,-19.23 -7.21,-28.86 -2.41,-9.62 -13.83,-12.02 -21.04,-8.42 -7.21,3.61 -9.02,10.82 -9.62,16.24 -0.6,5.4 -21.05,7.81 -34.87,7.15 -13.82,-0.66 -70.34,0.06 -89.57,1.84 -47.39,4.39 -73.34,25.27 -82.36,30.67 -9.02,5.41 -26.45,-20.43 -32.46,-24.64 -6.01,-4.2 -26.45,-8.41 -34.88,-7.81 -8.4,0.59 -1.19,13.82 3.02,16.82 4.21,3.01 10.23,16.83 10.82,26.45 1.06,17.07 -45.68,44.48 -89.57,100.99 -43.89,56.51 -63.12,117.83 -66.12,193.57 -3,75.74 15.02,119.63 16.22,125.63 1.21,6.01 -16.22,12.03 -22.84,14.42 -6.6,2.41 -9.01,22.25 -4.8,39.68z"/>
    <path class="fil0" d="M363.08 1175.41c5.41,0 15.63,12.63 20.43,16.83 4.82,4.2 15.04,13.83 17.45,17.44 2.4,3.61 3,12.03 -1.21,14.42 -4.2,2.41 -18.04,-1.8 -25.85,-9.62 -5.71,-5.72 -11.42,-15.03 -12.62,-22.24 -1.2,-7.21 -3.61,-16.83 1.8,-16.83zm103.89 272.47c6.01,-4.21 16.83,-12.03 22.24,-14.42 5.41,-2.41 12.63,-7.21 16.23,-3 3.61,4.2 -7.81,15.02 -13.23,19.83 -6.68,5.93 -13.83,13.24 -20.44,15.04 -6.6,1.79 -14.42,3 -14.42,-1.2 0,-4.21 3.61,-12.03 9.62,-16.23zm-155.08 -295.16c1.8,10.22 15.03,26.45 18.63,36.07 3.61,9.61 -4.81,12.01 -12.62,15.02 -7.8,3.01 0,16.24 7.82,27.05 7.81,10.82 22.25,30.05 36.67,38.48 14.43,8.41 47.49,9.02 66.12,10.23 18.64,1.19 22.85,7.21 22.85,13.22 0,6.01 -10.82,12.63 -30.66,18.03 -19.83,5.41 -46.89,4.81 -59.52,-2.4 -12.62,-7.21 -16.83,-4.21 -21.04,7.21 -4.2,11.42 3.61,21.65 10.82,27.66 7.21,6.02 8.42,12.63 4.21,19.83 -4.21,7.21 -9.02,16.83 -12.62,27.66 -3.61,10.82 -1.81,44.49 4.2,69.73 6.01,25.24 33.07,59.52 41.48,70.94 8.41,11.41 7.21,27.05 9.01,36.06 1.8,9.01 1.8,23.45 -14.42,24.65 -16.23,1.2 -15.03,-16.84 -15.03,-25.85 0,-9.01 -10.82,-5.41 -18.04,-1.2 -7.21,4.2 -6.01,22.25 -5.41,37.27 0.6,15.03 28.88,26.33 41.48,25.24 21.04,-1.8 32.46,-12.02 37.87,-30.65 5.41,-18.65 -7.82,-54.11 -13.83,-64.32 -6,-10.22 -13.82,-21.04 -12.62,-27.06 1.21,-6.01 17.43,-2.39 27.66,-2.39 10.22,0 46.88,3 66.72,3.6 19.85,0.6 34.88,-3.6 52.3,-13.83 17.44,-10.22 11.42,-19.23 4.82,-22.84 -6.61,-3.6 -3.61,-9.62 0.6,-14.42 4.21,-4.82 15.04,-11.43 23.44,-20.44 8.42,-9.02 -8.41,-12.03 -15.03,-15.63 -6.62,-3.62 4.81,-13.83 8.43,-18.04 3.6,-4.2 -0.61,-10.82 -7.22,-12.63 -6.62,-1.8 -13.23,0.6 -24.65,2.41 -11.42,1.81 -8.41,-10.82 -8.41,-16.22 0,-5.42 -5.4,-10.82 -10.82,-8.42 -5.41,2.39 -11.42,10.81 -16.23,19.23 -4.81,8.42 -10.82,4.21 -14.43,0 -3.6,-4.21 -6.61,-7.21 -12.63,-3.6 -6,3.6 -19.83,13.83 -33.65,23.45 -13.84,9.62 -15.64,21.04 -16.84,34.87 -1.2,13.81 -3,25.24 -19.23,24.65 -16.23,-0.6 -21.64,-11.43 -28.25,-18.64 -6.62,-7.22 -4.22,-33.05 -3.01,-44.47 1.21,-11.43 8.41,-24.66 16.23,-24.66 7.81,-0 10.82,5.41 15.63,9.62 4.8,4.2 9.62,8.42 22.24,7.81 12.62,-0.6 7.21,-9.02 3.6,-21.64 -3.6,-12.61 -1.2,-16.22 6.02,-26.44 7.22,-10.22 27.05,-16.23 43.28,-16.84 34.27,-1.21 72.13,33.06 94.98,59.51 22.84,26.45 38.47,82.96 43.28,102.2 4.81,19.23 10.82,17.43 21.05,16.23 10.22,-1.21 16.23,-4.21 18.63,-8.42 2.4,-4.2 4.81,-16.22 9.61,-21.04 4.82,-4.81 9.62,0 15.03,3 5.41,3.01 11.43,6.02 16.23,4.82 4.81,-1.21 9.02,-15.03 1.81,-30.06 -7.21,-15.03 -34.27,-15.63 -45.09,-13.23 -10.82,2.41 -15.63,-16.82 -21.64,-28.84 -6.01,-12.02 -37.27,-57.71 -64.32,-80.56 -27.05,-22.85 -93.78,-60.71 -108.21,-68.54 -14.43,-7.81 -7.21,-34.26 -10.82,-59.5 -3.61,-25.25 -21.65,-39.08 -38.48,-47.49 -16.83,-8.42 -21.63,-17.44 -24.04,-33.07 -2.4,-15.63 -19.84,-12.62 -28.26,-12.62 -8.41,-0 -12.02,-12.63 -18.02,-19.83 -6.02,-7.21 -12.63,-2.4 -16.23,4.2 -3.6,6.62 0.6,17.43 0.6,26.45 0,9.01 -6.02,8.41 -11.42,9.01 -5.42,0.6 -2.41,10.22 -0.6,20.44z"/>
    <path class="fil0" d="M460.61 1047.66l849.86 849.86 849.81 -849.86 -849.81 -849.86 -849.86 849.86zm849.86 951.89l-951.87 -951.89 951.87 -951.89 951.88 951.89 -951.88 951.89z"/>
    <path class="fil0" d="M1118.78 1115.11c-24.61,-102.67 -57.77,-244.5 -61.81,-275.39 -4.02,-30.91 -9.4,-65.83 -34.92,-75.23 -25.52,-9.42 -26.87,-26.88 -26.87,-33.59 64.49,-2.69 161.21,1.34 181.36,4.04 -5.37,30.89 -47.02,30.89 -45.68,53.72 1.34,22.85 49.71,216.3 75.23,308.99 25.53,92.7 72.55,268.69 132.99,369.44 61.81,-131.66 111.51,-232.41 133.01,-266 21.5,-33.58 51.05,-92.69 57.77,-103.44 6.7,-10.75 16.11,-29.55 1.34,-29.55 -14.78,-0.01 -49.71,4.02 -63.14,-1.34 -13.43,-5.39 -24.18,-21.5 -4.03,-37.62 20.15,-16.13 112.51,-92.34 112.51,-92.34 36.96,-33.8 28.54,-107.83 24.51,-138.73 -4.02,-30.91 -29.56,-98.08 -85.99,-106.13 -56.42,-8.05 -115.53,18.19 -115.53,64.07 0.01,20.19 16.57,45.87 35.68,45.87 13.11,0 30.57,-3.83 38.21,-29.32 3.86,-12.88 25.67,-17.65 25.67,19.48 0,29.59 -21.29,62.46 -63.88,62.46 -32.76,-0 -78.68,-31.33 -78.68,-87.03 0,-64.43 51.06,-118.52 149.13,-121.2 120.66,0 182.72,89.53 182.72,174.72 0,104.29 -69.15,151.79 -145.05,196.56 -16.07,9.48 -15.83,21 -2.73,21l73.2 0c6.92,0 7.34,7.03 5.21,10.74 -51.94,90.27 -137.29,254.32 -164.38,296.91 -28.22,44.32 -111.51,217.64 -120.91,241.8 -9.4,24.19 -14.78,57.77 -38.96,12.1 -24.19,-45.68 -137.04,-322.42 -175.99,-484.98z"/>
   </g>
   <g>
    <g>
     <polygon class="fil0" points="274.99,2417.99 233.24,2417.99 137.5,2663.52 41.76,2417.99 -0,2417.99 137.5,2759.15 "/>
     <path class="fil0" d="M381.63 2652.85l-80.56 0 40.64 -90.3 39.92 90.3zm67.38 87.18l-106.59 -236.32 -109.43 236.32 29.23 0 28.51 -63.52 101.24 0 27.8 63.52 29.23 0z"/>
     <path class="fil0" d="M563.43 2608.94c-9.99,6.54 -22.46,9.97 -37.79,9.97l-16.75 0 0 -80.64 16.04 0c7.85,0 14.97,0.62 21.38,1.87 6.42,1.56 12.12,3.73 16.75,6.54 4.64,3.11 8.55,7.16 11.05,12.14 2.5,5.29 3.92,11.52 3.92,18.99 0,14.01 -4.99,24.6 -14.61,31.14l0 -0zm56.68 131.09l-75.57 -100.89c9.62,-0.62 18.18,-2.8 25.66,-6.22 7.49,-3.42 13.55,-8.09 18.9,-13.7 4.99,-5.61 8.91,-12.14 11.4,-19.31 2.5,-7.16 3.92,-14.63 3.92,-22.73 0.01,-11.52 -2.14,-21.17 -6.42,-29.27 -4.27,-7.78 -9.98,-14.32 -17.46,-19.3 -7.49,-4.98 -16.4,-8.72 -26.74,-10.9 -10.34,-2.18 -21.39,-3.12 -33.15,-3.12l-38.15 0 0 225.43 26.38 0 0 -98.7 6.77 0 72.36 98.7 32.09 0z"/>
     <path class="fil0" d="M804.4 2663.74c-4.63,10.9 -11.41,20.24 -19.96,28.03 -8.91,7.78 -19.25,14.01 -31.73,18.06 -12.47,4.36 -26.38,6.54 -41.71,6.54l-23.16 0 0 -178.1 23.17 0c15.33,0 28.87,2.18 41.35,6.54 12.48,4.36 22.82,10.28 31.73,18.06 8.91,7.78 15.69,17.13 20.32,28.02 4.64,10.9 6.77,23.04 6.77,36.43 0,13.39 -2.14,25.53 -6.77,36.43l0 0zm24.24 -83.76c-6.77,-15.25 -17.11,-28.33 -31.02,-39.23 -13.19,-10.28 -27.09,-17.13 -40.99,-20.86 -13.9,-3.43 -29.59,-5.3 -46.7,-5.3l-48.47 0 0 225.43 48.12 0c8.91,0 17.11,-0.31 24.95,-1.25 7.49,-0.62 14.97,-1.87 22.1,-4.05 6.77,-1.87 13.55,-4.36 20.32,-7.78 6.42,-3.42 12.83,-7.78 19.6,-13.08 14.62,-11.52 24.95,-24.6 31.73,-39.23 6.77,-14.64 9.98,-30.2 9.98,-47.33 0,-15.88 -3.21,-31.76 -9.63,-47.32l0 -0z"/>
     <polygon class="fil0" points="1038.6,2514.6 881.4,2514.6 881.4,2538.27 994.4,2538.27 864.64,2740.03 1035.04,2740.03 1035.04,2716.37 908.85,2716.37 "/>
     <polygon class="fil0" points="1104.91,2740.03 1104.91,2514.6 1078.52,2514.6 1078.52,2740.03 "/>
     <path class="fil0" d="M1286.34 2652.85l-80.56 0 40.64 -90.3 39.92 90.3zm67.38 87.18l-106.59 -236.32 -109.43 236.32 29.23 0 28.51 -63.52 101.24 0 27.8 63.52 29.23 0z"/>
     <path class="fil0" d="M1559.37 2552.77c-14.26,9.34 -32.08,14.23 -53.98,14.23l-23.93 -0 0 -115.2 22.91 0c11.2,0 21.39,0.89 30.55,2.67 9.17,2.22 17.31,5.34 23.93,9.34 6.62,4.45 12.22,10.23 15.79,17.35 3.57,7.56 5.6,16.46 5.6,27.13 0,20.02 -7.13,35.14 -20.88,44.48l0 0zm80.97 187.26l-107.96 -144.12c13.75,-0.89 25.97,-4 36.66,-8.89 10.7,-4.89 19.35,-11.57 26.99,-19.57 7.14,-8.01 12.73,-17.35 16.29,-27.58 3.57,-10.23 5.6,-20.9 5.6,-32.47 0,-16.46 -3.06,-30.25 -9.17,-41.81 -6.11,-11.12 -14.26,-20.46 -24.95,-27.57 -10.69,-7.12 -23.43,-12.46 -38.2,-15.57 -14.76,-3.12 -30.55,-4.45 -47.36,-4.45l-54.49 -0 0 322.04 37.69 0 0 -141.01 9.68 0 103.37 141.01 45.83 0z"/>
     <polygon class="fil0" points="1809.96,2740.03 1809.96,2716.37 1713,2716.37 1713,2628.87 1807.1,2628.87 1807.1,2605.21 1713,2605.21 1713,2538.27 1809.96,2538.27 1809.96,2514.6 1686.62,2514.6 1686.62,2740.03 "/>
     <path class="fil0" d="M1986.05 2644.75c-5.35,-7.78 -12.12,-14.32 -20.32,-19.61 -8.19,-5.3 -17.11,-9.66 -26.73,-13.39 -9.62,-3.43 -18.18,-7.16 -26.38,-10.9 -8.2,-3.74 -15.33,-8.1 -20.67,-12.76 -5.35,-4.67 -8.2,-10.9 -8.2,-18.68 0.01,-10.28 3.57,-18.68 11.05,-25.22 7.49,-6.54 17.11,-9.66 28.88,-9.66 9.98,0 18.18,2.18 24.95,6.54 6.42,4.36 11.76,10.28 15.68,18.06l21.04 -13.08c-6.06,-11.21 -14.26,-19.93 -24.24,-26.15 -10.33,-5.92 -22.45,-9.03 -37.07,-9.03 -9.62,-0 -18.54,1.24 -26.74,4.04 -8.19,2.8 -15.32,6.85 -21.39,11.84 -6.06,5.29 -10.34,11.21 -13.55,18.37 -3.21,7.16 -4.99,15.26 -4.99,23.66 0,11.52 2.85,20.55 8.2,27.71 5.35,7.16 12.12,13.39 20.32,18.06 8.2,4.98 16.75,9.34 26.38,12.76 9.63,3.43 18.18,7.47 26.38,11.52 8.2,4.04 14.97,9.03 20.32,14.63 5.35,5.91 8.2,13.39 8.2,22.41 0,6.23 -1.07,12.15 -3.21,17.44 -2.14,5.6 -5.35,10.28 -9.26,14.32 -4.28,4.04 -9.27,7.16 -15.33,9.34 -6.06,2.18 -12.48,3.42 -19.96,3.42 -7.13,0 -13.55,-0.94 -18.9,-3.11 -5.7,-2.19 -10.7,-4.98 -14.61,-8.72 -3.92,-3.74 -7.13,-8.1 -9.63,-13.08 -2.49,-4.98 -4.27,-10.27 -5.35,-16.19l-25.66 6.54c1.78,8.41 4.99,16.19 8.91,23.35 3.93,7.16 9.27,13.39 15.33,18.37 6.06,5.29 13.55,9.34 21.74,12.15 8.2,2.8 17.47,4.36 27.8,4.36 11.41,-0 21.75,-1.87 31.01,-5.61 9.27,-3.42 17.11,-8.4 23.88,-14.63 6.42,-6.23 11.41,-13.7 14.97,-22.11 3.57,-8.41 5.35,-17.44 5.35,-27.09 0,-12.15 -2.85,-22.11 -8.2,-29.89l0 0z"/>
     <path class="fil0" d="M2243.43 2661.88c-4.64,11.21 -11.41,21.17 -19.96,29.89 -8.55,8.72 -18.89,15.57 -30.65,20.86 -11.76,5.29 -24.95,7.78 -39.21,7.78 -14.26,0 -27.45,-2.49 -39.21,-7.78 -11.76,-5.29 -22.1,-12.14 -30.65,-20.86 -8.55,-8.72 -14.97,-18.69 -19.6,-29.89 -4.64,-11.21 -7.13,-22.73 -7.13,-34.56 0,-11.83 2.5,-23.35 7.13,-34.56 4.64,-11.21 11.05,-21.17 19.6,-29.89 8.56,-8.41 18.9,-15.26 30.65,-20.55 11.77,-5.29 24.95,-7.78 39.21,-7.78 14.26,0 27.45,2.49 39.21,7.78 11.77,5.29 22.1,12.14 30.65,20.55 8.55,8.72 15.33,18.68 19.96,29.89 4.64,11.21 6.77,22.73 6.77,34.56 0,11.83 -2.13,23.35 -6.77,34.56l0 0zm24.95 -79.08c-6.06,-14.01 -14.26,-26.16 -25.31,-37.05 -11.05,-10.59 -23.89,-18.99 -38.86,-25.53 -15.32,-6.23 -32.08,-9.34 -50.62,-9.34 -18.53,-0 -35.29,3.11 -50.26,9.34 -15.32,6.53 -28.16,14.94 -39.21,25.53 -11.05,10.9 -19.25,23.04 -25.31,37.05 -6.06,14.01 -8.91,28.96 -8.91,44.52 0,15.57 2.85,30.2 8.91,44.21 6.06,14.01 14.26,26.47 25.31,37.36 11.06,10.9 23.88,19.31 39.21,25.53 14.97,6.54 31.73,9.66 50.26,9.66 18.54,-0 35.29,-3.12 50.62,-9.66 14.97,-6.22 27.8,-14.63 38.86,-25.53 11.05,-10.9 19.25,-23.35 25.31,-37.36 6.06,-14.01 8.91,-28.64 8.91,-44.21 0,-15.57 -2.85,-30.51 -8.91,-44.52l0 0z"/>
     <path class="fil0" d="M2406.7 2608.94c-9.98,6.54 -22.46,9.97 -37.79,9.97l-16.75 0 0 -80.64 16.04 0c7.85,0 14.97,0.62 21.39,1.87 6.43,1.56 12.12,3.73 16.75,6.54 4.64,3.11 8.55,7.16 11.05,12.14 2.5,5.29 3.92,11.52 3.92,18.99 0,14.01 -4.99,24.6 -14.61,31.14l0 -0zm56.68 131.09l-75.57 -100.89c9.63,-0.62 18.18,-2.8 25.67,-6.22 7.49,-3.42 13.55,-8.09 18.89,-13.7 4.99,-5.61 8.91,-12.14 11.4,-19.31 2.5,-7.16 3.92,-14.63 3.92,-22.73 0,-11.52 -2.14,-21.17 -6.42,-29.27 -4.27,-7.78 -9.98,-14.32 -17.46,-19.3 -7.48,-4.98 -16.4,-8.72 -26.74,-10.9 -10.34,-2.18 -21.39,-3.12 -33.15,-3.12l-38.14 0 0 225.43 26.38 0 0 -98.7 6.77 0 72.36 98.7 32.08 0z"/>
     <polygon class="fil0" points="2620.94,2538.27 2620.94,2514.6 2479.07,2514.6 2479.07,2538.27 2536.81,2538.27 2536.81,2740.03 2563.19,2740.03 2563.19,2538.27 "/>
    </g>
    <polygon class="fil0" points="198.93,3036.66 198.93,2899.1 182.83,2899.1 182.83,2954.96 108.44,2954.96 108.44,2899.1 92.34,2899.1 92.34,3036.66 108.44,3036.66 108.44,2969.4 182.83,2969.4 182.83,3036.66 "/>
    <path class="fil0" d="M358.81 2988.97c-2.83,6.84 -6.97,12.92 -12.19,18.24 -5.21,5.32 -11.53,9.5 -18.71,12.73 -7.18,3.23 -15.23,4.75 -23.93,4.75 -8.7,0 -16.75,-1.52 -23.93,-4.75 -7.18,-3.23 -13.49,-7.41 -18.71,-12.73 -5.22,-5.33 -9.14,-11.4 -11.97,-18.24 -2.82,-6.84 -4.35,-13.87 -4.35,-21.09 0,-7.22 1.52,-14.25 4.35,-21.09 2.83,-6.85 6.74,-12.92 11.97,-18.24 5.22,-5.13 11.53,-9.31 18.71,-12.54 7.18,-3.23 15.23,-4.75 23.93,-4.75 8.71,-0 16.75,1.52 23.93,4.75 7.18,3.23 13.49,7.41 18.71,12.54 5.22,5.32 9.36,11.4 12.18,18.24 2.83,6.84 4.13,13.87 4.13,21.09 0,7.22 -1.31,14.25 -4.13,21.09l0 0zm15.23 -48.26c-3.7,-8.55 -8.71,-15.96 -15.45,-22.61 -6.74,-6.46 -14.57,-11.59 -23.71,-15.58 -9.35,-3.8 -19.58,-5.7 -30.89,-5.7 -11.3,0 -21.54,1.9 -30.67,5.7 -9.35,3.99 -17.19,9.12 -23.93,15.58 -6.74,6.64 -11.75,14.06 -15.44,22.61 -3.69,8.55 -5.44,17.67 -5.44,27.17 0,9.5 1.74,18.43 5.44,26.98 3.7,8.55 8.7,16.15 15.44,22.8 6.75,6.65 14.57,11.78 23.93,15.58 9.14,3.99 19.36,5.89 30.67,5.89 11.32,0 21.54,-1.89 30.89,-5.89 9.14,-3.8 16.97,-8.93 23.71,-15.58 6.74,-6.65 11.74,-14.25 15.44,-22.8 3.7,-8.55 5.44,-17.48 5.44,-26.98 0,-9.51 -1.74,-18.62 -5.44,-27.17l0.01 0z"/>
    <polygon class="fil0" points="479.98,2913.54 479.98,2899.1 393.4,2899.1 393.4,2913.54 428.64,2913.54 428.64,3036.66 444.74,3036.66 444.74,2913.54 "/>
    <polygon class="fil0" points="577.22,3036.66 577.22,3022.22 518.06,3022.22 518.06,2968.83 575.47,2968.83 575.47,2954.39 518.06,2954.39 518.06,2913.54 577.22,2913.54 577.22,2899.1 501.95,2899.1 501.95,3036.66 "/>
    <polygon class="fil0" points="662.92,3036.66 662.92,3022.22 622.9,3022.22 622.9,2899.1 606.8,2899.1 606.8,3036.66 "/>
    <path class="fil0" d="M1366.84 2956.67c-6.09,3.99 -13.71,6.08 -23.06,6.08l-10.22 0 0 -49.21 9.79 0c4.79,0 9.14,0.38 13.05,1.14 3.92,0.95 7.39,2.28 10.22,3.99 2.83,1.9 5.22,4.37 6.74,7.41 1.53,3.23 2.39,7.03 2.39,11.59 0,8.55 -3.04,15.01 -8.92,19l0 0zm34.59 79.99l-46.11 -61.56c5.87,-0.38 11.09,-1.71 15.65,-3.8 4.57,-2.09 8.26,-4.94 11.53,-8.36 3.06,-3.43 5.44,-7.41 6.97,-11.78 1.52,-4.37 2.39,-8.93 2.39,-13.87 0,-7.03 -1.31,-12.92 -3.91,-17.86 -2.61,-4.75 -6.09,-8.74 -10.66,-11.78 -4.56,-3.04 -10.01,-5.32 -16.32,-6.65 -6.31,-1.33 -13.05,-1.9 -20.23,-1.9l-23.27 -0 0 137.56 16.09 0 0 -60.23 4.14 0 44.16 60.23 19.58 0z"/>
    <polygon class="fil0" points="1502.15,3036.66 1502.15,3022.22 1442.98,3022.22 1442.98,2968.83 1500.4,2968.83 1500.4,2954.39 1442.98,2954.39 1442.98,2913.54 1502.15,2913.54 1502.15,2899.1 1426.88,2899.1 1426.88,3036.66 "/>
    <path class="fil0" d="M1609.6 2978.52c-3.27,-4.75 -7.4,-8.74 -12.4,-11.97 -5,-3.23 -10.44,-5.89 -16.32,-8.17 -5.87,-2.09 -11.09,-4.37 -16.1,-6.65 -4.99,-2.28 -9.35,-4.94 -12.61,-7.79 -3.26,-2.85 -5.01,-6.65 -5.01,-11.4 0,-6.27 2.18,-11.4 6.74,-15.39 4.57,-3.99 10.44,-5.89 17.62,-5.89 6.09,-0 11.09,1.33 15.23,3.99 3.92,2.66 7.18,6.27 9.57,11.02l12.84 -7.98c-3.7,-6.84 -8.71,-12.15 -14.8,-15.96 -6.31,-3.61 -13.71,-5.51 -22.62,-5.51 -5.87,0 -11.31,0.76 -16.32,2.47 -5,1.71 -9.35,4.18 -13.05,7.22 -3.7,3.23 -6.31,6.84 -8.27,11.21 -1.95,4.37 -3.04,9.31 -3.04,14.44 0,7.03 1.74,12.54 5,16.91 3.27,4.37 7.4,8.17 12.4,11.02 5,3.04 10.22,5.7 16.09,7.79 5.87,2.09 11.09,4.56 16.1,7.03 5.01,2.47 9.14,5.51 12.4,8.93 3.27,3.61 5,8.17 5,13.68 0,3.8 -0.65,7.41 -1.96,10.64 -1.3,3.42 -3.26,6.27 -5.66,8.74 -2.6,2.47 -5.66,4.37 -9.35,5.7 -3.7,1.33 -7.62,2.09 -12.19,2.09 -4.34,0 -8.26,-0.57 -11.53,-1.9 -3.48,-1.33 -6.53,-3.04 -8.92,-5.32 -2.39,-2.28 -4.35,-4.94 -5.87,-7.98 -1.52,-3.04 -2.61,-6.27 -3.26,-9.88l-15.66 3.99c1.08,5.12 3.04,9.88 5.43,14.25 2.39,4.37 5.66,8.17 9.35,11.21 3.7,3.23 8.27,5.7 13.27,7.41 5.01,1.71 10.66,2.66 16.97,2.66 6.97,0 13.27,-1.14 18.93,-3.42 5.66,-2.09 10.44,-5.13 14.57,-8.93 3.92,-3.8 6.96,-8.36 9.14,-13.49 2.18,-5.13 3.27,-10.64 3.27,-16.53 0,-7.41 -1.74,-13.49 -5,-18.24l0 0z"/>
    <path class="fil0" d="M897.92 2978.52c-3.27,-4.75 -7.4,-8.74 -12.4,-11.97 -5,-3.23 -10.44,-5.89 -16.32,-8.17 -5.87,-2.09 -11.09,-4.37 -16.1,-6.65 -4.99,-2.28 -9.35,-4.94 -12.61,-7.79 -3.26,-2.85 -5.01,-6.65 -5.01,-11.4 0,-6.27 2.18,-11.4 6.74,-15.39 4.57,-3.99 10.44,-5.89 17.62,-5.89 6.09,-0 11.09,1.33 15.23,3.99 3.92,2.66 7.18,6.27 9.57,11.02l12.84 -7.98c-3.7,-6.84 -8.71,-12.15 -14.8,-15.96 -6.31,-3.61 -13.71,-5.51 -22.62,-5.51 -5.87,0 -11.31,0.76 -16.32,2.47 -5,1.71 -9.35,4.18 -13.05,7.22 -3.7,3.23 -6.31,6.84 -8.27,11.21 -1.95,4.37 -3.04,9.31 -3.04,14.44 0,7.03 1.74,12.54 5,16.91 3.27,4.37 7.4,8.17 12.4,11.02 5,3.04 10.22,5.7 16.09,7.79 5.87,2.09 11.09,4.56 16.1,7.03 5.01,2.47 9.14,5.51 12.4,8.93 3.27,3.61 5,8.17 5,13.68 0,3.8 -0.65,7.41 -1.96,10.64 -1.3,3.42 -3.26,6.27 -5.66,8.74 -2.6,2.47 -5.66,4.37 -9.35,5.7 -3.7,1.33 -7.62,2.09 -12.19,2.09 -4.34,0 -8.26,-0.57 -11.53,-1.9 -3.48,-1.33 -6.53,-3.04 -8.92,-5.32 -2.39,-2.28 -4.35,-4.94 -5.87,-7.98 -1.52,-3.04 -2.61,-6.27 -3.26,-9.88l-15.66 3.99c1.08,5.12 3.04,9.88 5.43,14.25 2.39,4.37 5.66,8.17 9.35,11.21 3.7,3.23 8.27,5.7 13.27,7.41 5.01,1.71 10.66,2.66 16.97,2.66 6.97,0 13.27,-1.14 18.93,-3.42 5.66,-2.09 10.44,-5.13 14.57,-8.93 3.92,-3.8 6.96,-8.36 9.14,-13.49 2.18,-5.13 3.27,-10.64 3.27,-16.53 0,-7.41 -1.74,-13.49 -5,-18.24l0 0z"/>
    <polygon class="fil0" points="1715.1,2913.54 1715.1,2899.1 1628.53,2899.1 1628.53,2913.54 1663.77,2913.54 1663.77,3036.66 1679.87,3036.66 1679.87,2913.54 "/>
    <path class="fil0" d="M1810.59 2983.46l-49.16 0 24.81 -55.1 24.36 55.1zm41.12 53.2l-65.03 -144.21 -66.79 144.21 17.84 0 17.4 -38.76 61.78 0 16.97 38.76 17.83 0z"/>
    <path class="fil0" d="M1098.92 2983.46l-49.16 0 24.81 -55.1 24.36 55.1zm41.12 53.2l-65.03 -144.21 -66.79 144.21 17.84 0 17.4 -38.76 61.78 0 16.97 38.76 17.83 0z"/>
    <path class="fil0" d="M1975.27 2987.64l0 -88.54 -16.1 0 0 84.36c0,3.04 0,6.08 -0.22,9.12 -0.21,3.04 -0.65,5.89 -1.31,8.74 -0.87,2.85 -1.96,5.7 -3.48,8.17 -1.52,2.66 -3.7,5.13 -6.52,7.41 -3.05,2.47 -6.74,4.37 -11.09,5.7 -4.56,1.33 -8.7,2.09 -12.84,2.09 -4.13,0 -8.27,-0.76 -12.62,-2.09 -4.56,-1.33 -8.26,-3.23 -11.31,-5.7 -2.82,-2.28 -4.79,-4.75 -6.31,-7.41 -1.52,-2.47 -2.83,-5.32 -3.48,-8.17 -0.87,-2.85 -1.31,-5.7 -1.52,-8.74 -0.22,-3.04 -0.22,-6.08 -0.22,-9.12l0 -84.36 -16.09 0 0 88.54c0,5.89 0.65,11.59 1.73,17.1 1.09,5.51 3.7,10.64 7.4,15.77 4.57,6.27 10.88,10.83 18.49,13.87 7.62,3.23 15.44,4.75 23.93,4.75 8.49,0 16.53,-1.52 24.14,-4.75 7.62,-3.04 13.7,-7.6 18.27,-13.87 3.7,-5.13 6.31,-10.26 7.4,-15.77 1.08,-5.51 1.74,-11.21 1.74,-17.1l0 0z"/>
    <path class="fil0" d="M2062.06 2956.67c-6.09,3.99 -13.71,6.08 -23.06,6.08l-10.22 0 0 -49.21 9.79 0c4.79,0 9.13,0.38 13.05,1.14 3.92,0.95 7.4,2.28 10.23,3.99 2.83,1.9 5.22,4.37 6.74,7.41 1.52,3.23 2.39,7.03 2.39,11.59 0,8.55 -3.05,15.01 -8.92,19l0 0zm34.59 79.99l-46.11 -61.56c5.87,-0.38 11.09,-1.71 15.66,-3.8 4.57,-2.09 8.26,-4.94 11.53,-8.36 3.05,-3.43 5.44,-7.41 6.96,-11.78 1.52,-4.37 2.39,-8.93 2.39,-13.87 0,-7.03 -1.3,-12.92 -3.91,-17.86 -2.6,-4.75 -6.09,-8.74 -10.65,-11.78 -4.57,-3.04 -10.01,-5.32 -16.32,-6.65 -6.31,-1.33 -13.05,-1.9 -20.23,-1.9l-23.27 -0 0 137.56 16.1 0 0 -60.23 4.14 0 44.16 60.23 19.58 0z"/>
    <path class="fil0" d="M2195.62 2983.46l-49.16 0 24.8 -55.1 24.36 55.1zm41.12 53.2l-65.04 -144.21 -66.78 144.21 17.84 0 17.4 -38.76 61.78 0 16.96 38.76 17.84 0z"/>
    <polygon class="fil0" points="2386.4,3042.94 2386.4,2899.1 2370.3,2899.1 2370.3,3005.7 2257.18,2893.21 2257.18,3036.66 2273.28,3036.66 2273.28,2930.45 "/>
    <polygon class="fil0" points="2494.73,2913.54 2494.73,2899.1 2408.15,2899.1 2408.15,2913.54 2443.39,2913.54 2443.39,3036.66 2459.49,3036.66 2459.49,2913.54 "/>
    <polygon class="fil0" points="1241.55,2998.54 1182.93,2998.54 1182.93,2947.34 1241.55,2947.34 "/>
    <polygon class="fil0" points="760.77,2998.54 702.15,2998.54 702.15,2947.34 760.77,2947.34 "/>
    <path class="fil0" d="M953.47 2986.85l0 52.28 -14.63 0 0 -138.1 34.32 0c13.35,0 23.7,3.58 31.05,10.79 7.35,7.17 11,17.29 11,30.38 0,13.08 -4.08,23.8 -12.22,32.16 -8.18,8.32 -19.19,12.49 -33.07,12.49l-16.45 0zm0 -71.22l0 56.62 15.32 0c10.11,0 17.81,-2.56 23.11,-7.66 5.32,-5.1 7.97,-12.3 7.97,-21.6 0,-18.25 -9.75,-27.36 -29.24,-27.36l-17.16 0z"/>
   </g>
  </g>
 </g>
</svg>
